<svg width="410" height="328" viewBox="0 0 410 328" fill="none" xmlns="http://www.w3.org/2000/svg">
<g clip-path="url(#clip0)">
<path opacity="0.18" d="M404.586 221.469C402.016 233.583 338.838 296.22 281.881 326.52C270.585 332.521 259.54 337.252 249.257 340.057C211.449 350.348 158.053 347.225 121.998 343.201C106.029 341.419 93.4592 339.463 87.1414 338.398C84.2875 337.927 82.719 337.641 82.719 337.641C66.38 335.675 52.1106 325.906 41.817 313.874C31.5234 301.842 24.672 287.578 17.9294 273.488C11.7097 260.462 5.43551 247.304 2.46181 233.306C0.228813 222.759 -0.0652896 211.946 -0.0108263 201.204C0.130778 176.055 2.81038 149.277 19.2038 129.412C37.7214 107.028 69.5171 98.2622 90.8885 78.2841C102.925 67.0202 111.138 52.6843 122.314 40.6729C135.788 26.1937 153.293 15.4622 171.745 7.12693C180.786 3.03096 190.524 -0.583727 200.534 0.0716273C203.684 0.314565 206.796 0.88114 209.815 1.76121C229.095 7.10645 243.201 22.3844 247.285 40.8982C252.111 62.8218 270.585 91.7803 329.285 111.134C434.955 145.98 407.669 206.949 404.586 221.469Z" fill="#649A3D"/>
<path opacity="0.18" d="M372.094 75.458H313.981C307.791 75.458 302.773 80.1755 302.773 85.9949V149.359C302.773 155.179 307.791 159.896 313.981 159.896H372.094C378.284 159.896 383.302 155.179 383.302 149.359V85.9949C383.302 80.1755 378.284 75.458 372.094 75.458Z" fill="#649A3D"/>
<path opacity="0.18" d="M103.785 80.1887H45.673C39.4827 80.1887 34.4645 84.9062 34.4645 90.7256V154.09C34.4645 159.91 39.4827 164.627 45.673 164.627H103.785C109.976 164.627 114.994 159.91 114.994 154.09V90.7256C114.994 84.9062 109.976 80.1887 103.785 80.1887Z" fill="#649A3D"/>
<path d="M302.696 146.851C305.627 141.874 308.709 136.744 313.589 133.375C319.09 129.566 326.17 128.501 332.978 128.091C342.733 127.5 352.528 128.027 362.149 129.658C363.983 129.927 365.788 130.352 367.54 130.928C371.821 132.433 375.318 135.413 378.433 138.597C379.628 139.741 380.601 141.071 381.309 142.529C382.066 144.789 382.201 147.191 381.701 149.513C381.374 151.909 380.895 154.408 379.337 156.333C376.799 159.507 372.137 160.316 367.922 160.49C359.643 160.828 351.365 159.62 343.086 160.019C340.004 160.162 336.921 160.531 333.839 160.715C327.592 160.941 321.337 160.777 315.114 160.224C312.391 160.04 309.526 159.804 307.26 158.36C306.143 157.569 305.204 156.577 304.499 155.441C303.794 154.305 303.337 153.049 303.154 151.745C302.796 149.14 302.815 146.502 303.208 143.902" fill="#649A3D"/>
<path d="M337.052 120.002C336.824 121.804 336.213 123.545 335.255 125.122C334.427 126.443 333.316 127.692 333.24 129.351C333.25 130.336 333.476 131.308 333.904 132.208C334.943 135.232 336.572 138.048 338.708 140.512C340.003 141.971 341.726 143.041 343.663 143.587C345.6 144.133 347.664 144.132 349.6 143.584C350.579 143.299 351.477 142.809 352.225 142.151C354.633 139.959 352.89 135.617 351.833 132.074C350.461 127.477 352.628 120.708 351.833 117.892C351.575 116.653 350.952 115.507 350.036 114.585C349.512 114.169 348.895 113.87 348.232 113.709C347.568 113.547 346.874 113.528 346.202 113.653C341.965 114.155 338.032 117.524 336.18 122.234" fill="url(#paint0_linear)"/>
<path d="M346.256 129.535C347.846 129.76 349.72 129.484 350.613 128.224C351.053 127.458 351.271 126.596 351.245 125.726L351.561 120.759C350.582 121.328 349.442 121.603 348.293 121.548C346.43 121.609 344.557 121.63 342.694 121.609C341.463 121.609 338.925 121.036 337.869 121.824C336.115 123.145 340.723 127.098 341.845 127.845C343.158 128.719 344.667 129.297 346.256 129.535V129.535Z" fill="url(#paint1_linear)"/>
<path d="M329.242 110.714C329.629 112.487 330.251 114.207 331.094 115.834C331.99 117.326 333.089 118.703 334.361 119.93C335.673 121.371 337.262 122.566 339.045 123.452C341.291 124.301 343.709 124.672 346.125 124.538C347.76 124.589 349.392 124.377 350.951 123.913C354.328 122.756 356.484 119.643 357.977 116.561C359.999 112.521 361.112 108.132 361.244 103.669C361.359 99.1927 360.137 94.7759 357.715 90.9202C356.487 88.8885 354.714 87.1941 352.574 86.0051C350.028 84.8412 347.21 84.2989 344.383 84.4281C342.62 84.3789 340.859 84.5686 339.154 84.9913C336.471 85.8375 334.058 87.3062 332.139 89.2613C330.964 90.3208 329.978 91.5518 329.22 92.9068C326.235 98.4056 327.826 105.01 329.242 110.714Z" fill="url(#paint2_linear)"/>
<path d="M330.255 102.327C330.387 105.294 330.068 108.263 329.307 111.144C327.596 109.058 326.331 106.679 325.582 104.14C325.024 102.778 324.608 101.369 324.34 99.9313C324.184 98.6844 324.136 97.4275 324.199 96.1733C324.181 95.2745 324.28 94.377 324.493 93.5007C324.722 92.6183 325.288 91.8458 326.083 91.3298C326.4 91.1914 326.691 91.0045 326.943 90.7768C327.15 90.4679 327.273 90.1165 327.303 89.7528C327.652 87.3669 328.97 84.9401 331.311 83.9673C332.575 83.3589 333.895 82.8585 335.255 82.4723C340.58 81.1971 346.145 81.0746 351.528 82.1139C354.404 82.6771 357.356 83.6601 359.251 85.7695C360.628 87.486 361.537 89.4935 361.898 91.6165C362.034 91.9488 362.088 92.3058 362.056 92.6605C362.024 93.0152 361.906 93.3585 361.713 93.6645C361.469 93.8696 361.247 94.0959 361.048 94.3403C360.88 94.7097 360.856 95.1237 360.983 95.5077C361.767 99.8084 361.517 104.539 358.805 108.093C358.776 104.382 358.452 100.678 357.835 97.013C357.796 96.5069 357.624 96.0179 357.334 95.5896C356.528 94.5656 354.872 94.7499 353.522 94.9445C348.514 95.6859 343.385 95.0011 338.795 92.9784C337.979 92.5422 337.092 92.2376 336.17 92.0773C335.709 92.0062 335.236 92.0655 334.811 92.2479C334.386 92.4303 334.029 92.7273 333.784 93.1013C333.6 93.7224 333.465 94.3557 333.381 94.9957C332.964 95.8246 332.384 96.5717 331.671 97.1973C330.607 98.7126 330.109 100.517 330.255 102.327V102.327Z" fill="#3B485C"/>
<path d="M371.364 138.505C371.186 137.332 371.507 136.14 372.257 135.187C373.074 134.589 374.087 134.278 375.122 134.307C377.194 134.18 379.272 134.198 381.341 134.358C381.688 134.36 382.028 134.452 382.322 134.624C382.651 134.943 382.838 135.368 382.845 135.812C383.302 139.015 383.455 142.25 383.302 145.478C383.326 148.751 382.496 151.978 380.884 154.879C379.783 156.6 378.249 158.042 376.418 159.077C375.035 159.876 372.061 161.33 370.405 160.613C368.466 159.784 369.675 156.906 369.937 155.493C370.416 152.865 370.779 150.216 371.026 147.547C371.288 144.577 371.397 141.505 371.364 138.505Z" fill="#649A3D"/>
<path d="M374.37 128.112C373.647 126.755 372.71 125.509 371.592 124.415C370.51 123.204 369.534 121.913 368.673 120.555C368.479 120.334 368.343 120.073 368.277 119.794C368.211 119.514 368.216 119.224 368.292 118.947C368.641 118.22 369.784 118.24 370.471 118.609C371.56 119.182 372.649 120.329 373.869 119.94C375.089 119.551 375.187 118.128 375.013 117.001C374.435 113.233 372.213 109.383 373.651 105.819C375.243 107.773 376.52 109.936 377.442 112.24C377.712 112.139 377.944 111.964 378.108 111.737C378.271 111.511 378.358 111.244 378.357 110.97C378.332 110.423 378.226 109.882 378.041 109.362C377.627 107.736 377.726 106.032 378.324 104.457C379.514 105.302 380.373 106.494 380.764 107.847C383.422 114.708 383.019 122.234 382.594 129.525C382.557 130.935 382.371 132.338 382.039 133.713C381.84 134.748 381.276 135.689 380.437 136.385C379.141 137.297 375.547 137.717 374.882 135.976C374.479 134.952 374.991 133.109 375.002 131.993C375.076 130.672 374.861 129.351 374.37 128.112V128.112Z" fill="url(#paint3_linear)"/>
<path d="M85.6818 92.3538C83.5035 91.1367 81.1578 90.2065 78.7105 89.589C75.5759 88.9678 72.334 89.0065 69.2172 89.7023C66.1004 90.3981 63.186 91.7337 60.6831 93.6133C55.6933 97.4412 52.1955 102.717 50.7381 108.615C49.126 114.656 49.3547 121.077 47.3832 127.047C46.0761 130.968 43.8648 134.563 42.3834 138.423C40.902 142.284 40.2049 146.687 41.9913 150.435C43.7777 154.182 47.6991 156.579 51.8601 157.746C56.0211 158.913 60.4108 158.852 64.7352 158.821L75.2575 158.739C81.9347 158.739 89.418 158.36 94.0365 153.875C97.8271 150.24 98.7639 144.71 98.3935 139.631C98.0232 134.552 96.6616 129.545 96.5854 124.456C96.4546 112.342 98.6441 99.194 85.6818 92.3538Z" fill="#3B485C"/>
<path d="M44.5401 147.486C47.7317 144.823 52.263 144.147 56.5221 144.014C63.1968 143.975 69.8615 144.506 76.4339 145.601C79.0504 145.903 81.6368 146.403 84.1677 147.096C92.6639 149.636 99.0906 156.067 105.103 162.252C105.506 162.595 105.78 163.051 105.888 163.552C105.975 164.76 104.276 165.231 102.99 165.272C86.9889 165.856 70.944 164.248 54.9535 165.067C50.0954 165.313 40.6079 166.378 38.0481 161.064C36.1092 157.019 41.5556 149.984 44.5401 147.486Z" fill="#649A3D"/>
<path d="M71.7826 114.421C70.3408 115.086 68.8143 115.575 67.2403 115.875C64.6261 116.284 61.9465 115.711 59.2996 115.875C59.1408 115.872 58.9849 115.915 58.853 115.998C58.7348 116.125 58.6725 116.29 58.6787 116.459C58.0763 120.872 57.9377 125.331 58.2648 129.77C58.4191 131.641 58.9013 133.475 59.6917 135.198C60.8818 137.419 62.756 139.251 65.07 140.457C67.384 141.662 70.0305 142.185 72.6649 141.956C75.2911 141.654 77.7874 140.711 79.905 139.219C82.0226 137.728 83.6875 135.741 84.7339 133.457C85.8072 130.834 86.4393 128.07 86.6075 125.265C86.9778 121.691 87.1957 118.097 87.2393 114.533C86.4292 114.054 85.7442 113.409 85.2351 112.647C84.726 111.885 84.4058 111.025 84.2982 110.13C84.1098 108.619 84.1612 107.091 84.4507 105.594C81.1829 109.762 76.8694 112.301 71.7826 114.421Z" fill="url(#paint4_linear)"/>
<path d="M74.8543 149.697C74.5901 150.571 74.1388 151.385 73.5282 152.09C72.9176 152.794 72.1606 153.374 71.3033 153.793C70.3097 154.147 69.2458 154.292 68.1863 154.217C67.1269 154.143 66.0976 153.851 65.1708 153.363C64.0622 152.902 63.1361 152.125 62.5238 151.141C62.1313 150.331 61.9306 149.451 61.9356 148.561C61.848 146.888 61.9686 145.21 62.2951 143.564C62.7744 141.096 63.8092 138.577 65.9441 137.061C68.3079 135.382 73.569 135.075 75.3336 137.799C77.0982 140.522 75.8347 146.994 74.8543 149.697Z" fill="url(#paint5_linear)"/>
<path opacity="0.18" d="M259.169 28.7434H201.057C194.867 28.7434 189.848 33.4609 189.848 39.2803V102.645C189.848 108.464 194.867 113.182 201.057 113.182H259.169C265.36 113.182 270.378 108.464 270.378 102.645V39.2803C270.378 33.4609 265.36 28.7434 259.169 28.7434Z" fill="#649A3D"/>
<path d="M199.924 96.0402C203.115 93.3778 207.647 92.702 211.906 92.5791C218.166 92.4516 224.424 92.9113 230.587 93.9513C236.534 94.9036 242.71 94.8012 248.756 95.0367C250.934 95.1186 253.363 95.3029 254.888 96.7775C255.62 97.5836 256.179 98.5156 256.533 99.5218L258.069 103.116C259.158 105.655 263.21 111.84 259.768 113.591C257.938 114.523 254.104 113.919 252.056 113.929C249.322 113.929 246.61 113.929 243.843 113.858C232.678 113.632 221.502 113.008 210.337 113.591C205.479 113.847 195.992 114.902 193.432 109.598C191.493 105.574 196.939 98.4978 199.924 96.0402Z" fill="#649A3D"/>
<path d="M232.199 37.5293C233.818 36.5707 235.678 36.03 237.59 35.9617C239.502 35.8934 241.4 36.2999 243.092 37.1402C244.264 37.6986 245.273 38.5176 246.033 39.5261C247.049 41.1842 247.617 43.0511 247.688 44.9635C248.427 51.4664 248.562 58.0173 248.091 64.5422C247.666 70.5018 246.751 76.6048 248.418 82.3699C244.194 79.7751 240.721 76.2355 238.31 72.0685C235.912 67.9151 233.967 63.5443 232.504 59.0229C231.033 54.845 229.922 50.5647 227.983 46.5712C226.382 43.2842 229.269 39.2906 232.199 37.5293Z" fill="#3B485C"/>
<path d="M236.806 97.228C236.719 98.1253 236.438 98.9965 235.981 99.7887C235.524 100.581 234.901 101.277 234.149 101.836C233.246 102.366 232.231 102.702 231.175 102.82C230.118 102.939 229.047 102.837 228.038 102.522C226.856 102.272 225.788 101.677 224.988 100.822C224.45 100.093 224.079 99.2664 223.899 98.3953C223.477 96.769 223.254 95.1028 223.234 93.429C223.234 90.9202 223.713 88.309 225.489 86.3941C227.482 84.3461 232.547 83.0662 234.857 85.3701C237.166 87.6741 237.209 94.4017 236.806 97.228Z" fill="url(#paint6_linear)"/>
<path d="M225.141 93.173C225.995 94.4197 227.304 95.3301 228.822 95.7329C229.895 95.9529 230.994 96.0389 232.09 95.9889C232.457 95.9986 232.823 95.9607 233.179 95.8763C233.467 95.7772 233.735 95.6354 233.975 95.4565C234.973 94.7555 235.753 93.8158 236.234 92.7353C236.714 91.6548 236.878 90.4728 236.709 89.3125C236.709 89.0872 232.253 88.8005 231.807 88.7596C230.146 88.6045 228.476 88.5361 226.807 88.5548C225.849 88.5548 224.443 88.4626 224.095 89.5275C223.746 90.5925 224.52 92.2514 225.141 93.173Z" fill="url(#paint7_linear)"/>
<path d="M214.542 64.5525C214.47 68.676 214.865 72.7951 215.718 76.8404C216.589 80.9104 218.731 84.6435 221.873 87.5615C224.777 90.1187 228.623 91.5172 232.602 91.4629C234.573 91.4198 236.508 90.9612 238.265 90.1212C240.022 89.2811 241.556 88.081 242.754 86.6092C244.78 84.0493 245.564 80.8237 246.022 77.6698C246.862 72.1973 246.946 66.6456 246.272 61.1528C246.163 59.6055 245.757 58.0895 245.074 56.678C243.648 54.4599 241.439 52.7823 238.833 51.9369C234.71 50.4814 230.229 50.1722 225.925 51.046C216.219 52.7663 215.326 59.3096 214.705 59.6578C214.511 61.2825 214.456 62.9194 214.542 64.5525V64.5525Z" fill="url(#paint8_linear)"/>
<path d="M210.141 56.7804C210.278 54.5069 210.973 52.2941 212.171 50.3151C213.369 48.3361 215.038 46.6447 217.047 45.3731C221.067 42.9565 226.066 42.5981 230.826 42.5264C235.837 42.4445 241.12 42.6595 245.379 45.1478C247.675 46.5859 249.549 48.544 250.828 50.8417C252.107 53.1394 252.751 55.7029 252.699 58.2959C252.662 60.6395 252.124 62.9521 251.117 65.0965C250.11 67.2408 248.655 69.173 246.839 70.7783C245.967 69.6212 245.749 68.1569 245.139 66.8667C244.499 65.6303 243.686 64.4801 242.721 63.4465L238.528 58.5621C238.374 58.361 238.186 58.1846 237.972 58.0399C237.51 57.8461 236.994 57.7993 236.501 57.9067C231.926 58.4169 227.319 58.6359 222.711 58.5621C220.925 58.5621 218.932 58.5621 217.624 59.668C215.969 61.1426 216.742 67.5527 213.638 67.1227C212.113 66.9179 211.329 63.9893 210.947 62.8321C210.287 60.8781 210.014 58.827 210.141 56.7804V56.7804Z" fill="#3B485C"/>
<path d="M223.648 76.3079C226.139 76.3079 228.158 74.4099 228.158 72.0685C228.158 69.7272 226.139 67.8292 223.648 67.8292C221.158 67.8292 219.139 69.7272 219.139 72.0685C219.139 74.4099 221.158 76.3079 223.648 76.3079Z" stroke="white" stroke-width="0.84" stroke-miterlimit="10"/>
<path d="M237.286 76.3079C239.776 76.3079 241.795 74.4099 241.795 72.0685C241.795 69.7272 239.776 67.8292 237.286 67.8292C234.795 67.8292 232.776 69.7272 232.776 72.0685C232.776 74.4099 234.795 76.3079 237.286 76.3079Z" stroke="white" stroke-width="0.84" stroke-miterlimit="10"/>
<path d="M188.182 181.728H186.602V149.687H236.164V114.759H237.744V151.172H188.182V181.728Z" fill="#649A3D"/>
<path d="M204.063 179.547H202.473V172.614H333.043V160.756H334.623V174.109H204.063V179.547Z" fill="#649A3D"/>
<path d="M173.466 181.369H171.886V175.922H71.2273V165.354H72.8067V174.437H173.466V181.369Z" fill="#649A3D"/>
<path d="M150.242 179.915H226.644C228.204 179.91 229.75 180.194 231.194 180.751C232.637 181.309 233.95 182.128 235.056 183.163C236.162 184.198 237.04 185.428 237.639 186.783C238.239 188.137 238.548 189.589 238.549 191.056V294.357C238.549 297.04 237.415 299.613 235.397 301.511C233.379 303.408 230.642 304.474 227.787 304.474H149.883C146.893 304.474 144.025 303.359 141.907 301.374C139.79 299.39 138.596 296.697 138.587 293.886V190.872C138.587 189.433 138.889 188.008 139.474 186.679C140.06 185.35 140.919 184.142 142.001 183.125C143.083 182.107 144.368 181.3 145.782 180.749C147.196 180.199 148.712 179.915 150.242 179.915V179.915Z" fill="#649A3D"/>
<path d="M150.242 179.915H226.644C228.204 179.91 229.75 180.194 231.194 180.751C232.637 181.309 233.95 182.128 235.056 183.163C236.162 184.198 237.04 185.428 237.639 186.783C238.239 188.137 238.548 189.589 238.549 191.056V294.357C238.549 297.04 237.415 299.613 235.397 301.511C233.379 303.408 230.642 304.474 227.787 304.474H149.883C146.893 304.474 144.025 303.359 141.907 301.374C139.79 299.39 138.596 296.697 138.587 293.886V190.872C138.587 189.433 138.889 188.008 139.474 186.679C140.06 185.35 140.919 184.142 142.001 183.125C143.083 182.107 144.368 181.3 145.782 180.749C147.196 180.199 148.712 179.915 150.242 179.915V179.915Z" fill="url(#paint9_linear)"/>
<path d="M233.855 189.735H143.26V289.431H233.855V189.735Z" fill="white"/>
<path d="M150.406 265.48L160.645 259.991C164.223 257.915 168.024 256.199 171.984 254.871C177.964 253.079 184.369 253.1 190.633 253.295C200.523 253.602 210.73 254.411 219.465 258.783C228.201 263.156 235.118 271.941 234.051 281.188C233.711 283.522 233.082 285.811 232.177 288.008C232.026 288.566 231.695 289.067 231.23 289.441C230.72 289.702 230.14 289.812 229.563 289.759C207.059 289.892 184.554 291.049 162.028 289.964C156.103 289.677 150.199 290.445 144.262 290.691C143.489 290.691 143.435 274.747 143.533 273.498C143.936 269.279 146.572 267.538 150.406 265.48Z" fill="#649A3D"/>
<path d="M222.907 253.284C224.054 256.322 224.786 259.484 225.086 262.695C225.565 266.32 226.012 269.955 226.175 273.611C226.415 278.495 226.175 283.42 227.101 288.243C228.027 293.066 230.173 297.889 234.29 300.879C234.532 301.108 234.827 301.281 235.153 301.382C235.478 301.484 235.825 301.511 236.164 301.463C236.872 301.258 237.188 300.49 237.384 299.814C239.835 291.1 237.166 281.956 235.881 273.027C235.481 269.095 234.866 265.185 234.04 261.312C233.357 258.643 232.352 256.056 231.044 253.602C230.053 251.588 228.671 249.765 226.97 248.226C225.957 247.366 221.938 244.683 220.664 246.116C219.389 247.55 222.33 251.933 222.907 253.284Z" fill="url(#paint10_linear)"/>
<path d="M154.262 269.125C153.962 271.525 153.831 273.94 153.87 276.355V287.619C153.954 289.682 153.752 291.748 153.271 293.763C152.675 295.598 151.693 297.303 150.383 298.775C149.073 300.247 147.463 301.457 145.646 302.333C145.195 302.595 144.683 302.75 144.154 302.784C142.857 302.784 141.975 301.504 141.539 300.367C138.816 294.008 138.511 286.994 138.664 280.154C138.816 273.314 139.405 266.422 138.326 259.674C138.079 258.759 138.113 257.797 138.424 256.899C138.975 256.032 139.807 255.353 140.799 254.964L152.051 249.332C154.306 248.195 159.458 240.699 161.005 244.099C162.17 246.639 158.314 256.203 157.399 258.609C155.982 262.007 154.931 265.53 154.262 269.125V269.125Z" fill="url(#paint11_linear)"/>
<path d="M134.056 307.679C140.39 303.443 145.177 297.47 147.759 290.578C152.214 278.638 149.796 264.692 156.604 253.776C158.238 251.154 160.405 248.738 161.179 245.789C161.952 242.84 160.7 239.071 157.562 238.324C154.425 237.576 151.463 240.218 149.349 242.625L138.533 254.912C138.402 253.888 138.402 244.068 138.533 240.802C127.412 241.314 117.63 249.793 114.874 259.94C113.972 263.702 113.562 267.554 113.654 271.409C113.654 275.403 113.785 279.406 114.035 283.4C114.27 285.976 114.27 288.566 114.035 291.141C113.131 298.401 108.24 304.658 106.182 311.703C106.073 311.991 106.073 312.306 106.182 312.594C106.337 312.844 106.574 313.042 106.857 313.157C110.049 314.755 113.774 315.062 117.39 315.205C121.007 315.348 124.906 315.471 128.675 315.441C129.395 315.491 130.116 315.375 130.777 315.103C132.085 314.447 132.379 312.829 132.52 311.437" fill="url(#paint12_linear)"/>
<path d="M234.944 297.08C227.657 284.147 231.621 267.6 224.487 254.595C222.668 251.288 220.13 248.062 220.13 244.355C220.06 243.917 220.115 243.47 220.287 243.058C220.46 242.647 220.746 242.285 221.114 242.01C221.483 241.735 221.923 241.556 222.389 241.491C222.854 241.426 223.33 241.478 223.768 241.642C229.77 242.543 233.038 248.81 238.462 251.39L238.059 241.703C244.411 242.489 250.342 245.124 255.019 249.24C257.158 251.039 258.872 253.24 260.051 255.701C261.128 258.359 261.706 261.172 261.761 264.016C262.165 270.784 261.576 277.594 262.077 284.352C262.578 291.111 264.256 298.053 268.733 303.398C271.14 306.296 274.473 309.164 274.179 312.819C274.186 313.1 274.09 313.375 273.907 313.597C273.755 313.712 273.581 313.798 273.394 313.849C273.207 313.9 273.011 313.915 272.818 313.894C268.533 313.935 264.252 313.905 259.975 313.802C256.424 313.71 249.747 314.621 246.534 313.229C244.235 312.205 242.863 308.109 241.283 305.979C238.99 303.13 236.873 300.159 234.944 297.08V297.08Z" fill="url(#paint13_linear)"/>
<path d="M179.5 260.288C180.077 262.55 181.156 264.671 182.668 266.511C184.179 268.352 186.088 269.871 188.269 270.969C190.927 272.259 193.977 272.802 196.689 271.665C200.621 270.016 203.017 265.132 203.54 260.278C204.063 255.424 203.061 250.55 202.059 245.809C201.918 244.433 201.371 243.12 200.479 242.02C199.831 241.465 199.032 241.089 198.17 240.935C193.552 239.788 184.064 238.651 180.361 243.167C177.54 246.577 178.465 256.274 179.5 260.288Z" fill="url(#paint14_linear)"/>
<path d="M169.534 213.973V242.952C169.534 242.952 169.741 255.824 191.569 257.442C213.398 259.06 211.263 233.091 211.263 233.091L211.699 211.587C211.699 211.587 174.882 206.529 169.534 213.973Z" fill="url(#paint15_linear)"/>
<path d="M172.747 220.506C172.442 220.885 171.843 220.885 171.363 221.039C170.024 221.459 169.544 222.984 169.305 224.295C168.724 227.544 168.36 230.824 168.215 234.115L164.501 224.746C163.57 222.709 162.957 220.557 162.682 218.356C162.544 217.252 162.658 216.132 163.017 215.073C163.375 214.013 163.971 213.038 164.762 212.212C165.249 211.829 165.681 211.388 166.048 210.901C166.353 210.255 166.527 209.56 166.56 208.853C167.091 206.329 168.596 204.079 170.786 202.535C172.973 201.018 175.424 199.871 178.03 199.146C187.616 196.06 198.014 196.006 207.636 198.992C210.806 200.016 214.041 201.624 215.522 204.45C216.235 205.974 216.605 207.619 216.612 209.283C216.916 216.142 215.176 222.944 211.59 228.924C211.937 224.456 211.417 219.966 210.054 215.673C210.61 217.404 189.826 218.018 188.007 217.813C184.282 217.414 180.862 216.103 177.224 215.53C175.873 215.315 175.045 215.182 174.097 216.185C172.823 217.404 173.662 219.411 172.747 220.506Z" fill="#B7A451"/>
<path d="M177.932 241.365C178.837 240.186 180.006 239.208 181.358 238.5C182.709 237.792 184.21 237.372 185.753 237.269C188.832 237.08 191.924 237.329 194.924 238.006C197.266 238.426 199.804 238.948 201.296 240.689C202.386 241.959 202.723 243.659 203.627 245.051C204.532 246.444 206.558 247.519 207.985 246.567C208.224 249.014 206.198 251.052 204.597 252.987C202.996 254.923 201.689 257.134 199.456 258.353C197.839 259.125 196.061 259.555 194.249 259.613C190.106 260.052 185.912 259.582 181.995 258.24C180.154 257.555 178.452 256.579 176.962 255.353C175.96 254.523 173.226 252.168 173.313 250.765C173.313 250.161 174.283 249.526 174.664 248.963C175.158 248.161 175.552 247.309 175.84 246.424C176.316 244.664 177.018 242.965 177.932 241.365V241.365Z" fill="#B7A451"/>
<path d="M184.249 244.027C184.91 243.438 185.789 243.114 186.7 243.126C189.323 242.86 191.965 242.809 194.597 242.973C195.49 242.975 196.371 243.16 197.179 243.515C199.107 244.539 199.477 246.905 199.63 248.953C199.817 249.996 199.661 251.067 199.183 252.025C198.781 252.518 198.276 252.928 197.699 253.231C197.122 253.534 196.486 253.723 195.828 253.786C192.288 254.452 187.539 254.308 184.347 252.496C183.83 252.22 183.417 251.8 183.165 251.294C182.913 250.787 182.836 250.22 182.942 249.67C183.062 248.164 183.215 245.236 184.249 244.027Z" fill="url(#paint16_linear)"/>
<path d="M122.499 341.255C122.346 341.89 122.194 342.556 121.987 343.201C106.018 341.419 93.4481 339.463 87.1304 338.398C87.2528 336.341 87.7733 334.321 88.6662 332.439C91.0498 326.939 93.8303 321.598 96.9882 316.454C97.6871 315.023 98.8251 313.822 100.256 313.003C101.762 312.502 103.387 312.399 104.951 312.706C111.258 313.413 127.128 313.188 130.069 320.079C132.379 325.373 123.806 335.541 122.499 341.255Z" fill="#649A3D"/>
<path d="M282.817 324.8C282.671 325.437 282.347 326.027 281.881 326.51V326.51C270.585 332.511 259.54 337.241 249.257 340.047C248.847 339.6 248.559 339.066 248.418 338.491C246.102 331.589 243.785 324.68 241.469 317.765C240.695 315.43 239.977 312.645 241.469 310.689C242.961 308.733 246.262 308.457 248.996 308.518C255.869 308.518 267.165 306.982 273.602 309.164C279.441 311.15 280.214 317.243 282.316 322.475C282.694 323.197 282.867 323.997 282.817 324.8V324.8Z" fill="#649A3D"/>
</g>
<defs>
<linearGradient id="paint0_linear" x1="333.229" y1="128.746" x2="353.424" y2="128.746" gradientUnits="userSpaceOnUse">
<stop stop-color="#E5C5D5"/>
<stop offset="0.42" stop-color="#EAD4D1"/>
<stop offset="1" stop-color="#F0E9CB"/>
</linearGradient>
<linearGradient id="paint1_linear" x1="344.459" y1="118.015" x2="344.517" y2="143.789" gradientUnits="userSpaceOnUse">
<stop stop-opacity="0"/>
<stop offset="0.99"/>
</linearGradient>
<linearGradient id="paint2_linear" x1="12414.7" y1="4774.52" x2="13457" y2="4774.52" gradientUnits="userSpaceOnUse">
<stop stop-color="#E5C5D5"/>
<stop offset="0.42" stop-color="#EAD4D1"/>
<stop offset="1" stop-color="#F0E9CB"/>
</linearGradient>
<linearGradient id="paint3_linear" x1="6174.89" y1="4449.38" x2="6373.55" y2="4449.38" gradientUnits="userSpaceOnUse">
<stop stop-color="#E5C5D5"/>
<stop offset="0.42" stop-color="#EAD4D1"/>
<stop offset="1" stop-color="#F0E9CB"/>
</linearGradient>
<linearGradient id="paint4_linear" x1="3294.56" y1="5045.21" x2="4075.4" y2="5045.21" gradientUnits="userSpaceOnUse">
<stop stop-color="#E5C5D5"/>
<stop offset="0.42" stop-color="#EAD4D1"/>
<stop offset="1" stop-color="#F0E9CB"/>
</linearGradient>
<linearGradient id="paint5_linear" x1="1701.25" y1="3023.33" x2="1888.98" y2="3023.33" gradientUnits="userSpaceOnUse">
<stop stop-color="#E5C5D5"/>
<stop offset="0.42" stop-color="#EAD4D1"/>
<stop offset="1" stop-color="#F0E9CB"/>
</linearGradient>
<linearGradient id="paint6_linear" x1="223.149" y1="94.8979" x2="237.097" y2="92.0029" gradientUnits="userSpaceOnUse">
<stop stop-color="#867580"/>
<stop offset="0.57" stop-color="#9B8F8E"/>
</linearGradient>
<linearGradient id="paint7_linear" x1="3659.36" y1="791.179" x2="3661.93" y2="1015.73" gradientUnits="userSpaceOnUse">
<stop stop-opacity="0"/>
<stop offset="0.99"/>
</linearGradient>
<linearGradient id="paint8_linear" x1="8419.78" y1="3493.89" x2="9373.15" y2="3493.89" gradientUnits="userSpaceOnUse">
<stop stop-color="#867580"/>
<stop offset="0.57" stop-color="#9B8F8E"/>
</linearGradient>
<linearGradient id="paint9_linear" x1="187.887" y1="324.8" x2="190.159" y2="2.4248" gradientUnits="userSpaceOnUse">
<stop offset="0.02" stop-color="white" stop-opacity="0"/>
<stop offset="0.32" stop-color="white" stop-opacity="0.39"/>
<stop offset="0.68" stop-color="white" stop-opacity="0.68"/>
<stop offset="1" stop-color="white"/>
</linearGradient>
<linearGradient id="paint10_linear" x1="4952.63" y1="16404.5" x2="5984.72" y2="15924.8" gradientUnits="userSpaceOnUse">
<stop stop-opacity="0"/>
<stop offset="0.99"/>
</linearGradient>
<linearGradient id="paint11_linear" x1="5053.9" y1="17523.5" x2="3827.42" y2="17265.1" gradientUnits="userSpaceOnUse">
<stop stop-opacity="0"/>
<stop offset="0.99"/>
</linearGradient>
<linearGradient id="paint12_linear" x1="8684.97" y1="22269.6" x2="11493.7" y2="22269.6" gradientUnits="userSpaceOnUse">
<stop stop-color="#E5C5D5"/>
<stop offset="0.42" stop-color="#EAD4D1"/>
<stop offset="1" stop-color="#F0E9CB"/>
</linearGradient>
<linearGradient id="paint13_linear" x1="14275" y1="20994.9" x2="16961" y2="20994.9" gradientUnits="userSpaceOnUse">
<stop stop-color="#E5C5D5"/>
<stop offset="0.42" stop-color="#EAD4D1"/>
<stop offset="1" stop-color="#F0E9CB"/>
</linearGradient>
<linearGradient id="paint14_linear" x1="5762.65" y1="8815.69" x2="6345.51" y2="8815.69" gradientUnits="userSpaceOnUse">
<stop stop-color="#E5C5D5"/>
<stop offset="0.42" stop-color="#EAD4D1"/>
<stop offset="1" stop-color="#F0E9CB"/>
</linearGradient>
<linearGradient id="paint15_linear" x1="9166.81" y1="11780" x2="10799" y2="11780" gradientUnits="userSpaceOnUse">
<stop stop-color="#E5C5D5"/>
<stop offset="0.42" stop-color="#EAD4D1"/>
<stop offset="1" stop-color="#F0E9CB"/>
</linearGradient>
<linearGradient id="paint16_linear" x1="3976.78" y1="3145.33" x2="4235.17" y2="3145.33" gradientUnits="userSpaceOnUse">
<stop stop-color="#E5C5D5"/>
<stop offset="0.42" stop-color="#EAD4D1"/>
<stop offset="1" stop-color="#F0E9CB"/>
</linearGradient>
<clipPath id="clip0">
<rect width="410" height="347" fill="white"/>
</clipPath>
</defs>
</svg>
