<svg width="474" height="339" viewBox="0 0 474 339" fill="none" xmlns="http://www.w3.org/2000/svg">
<g clip-path="url(#clip0)">
<path opacity="0.24" d="M154.344 6.22782C121.872 19.061 103.028 52.0355 78.4491 76.8059C64.3537 91.0445 48.0119 102.797 33.5202 116.623C19.0284 130.449 6.21043 147.015 1.80564 166.515C-6.57228 203.477 16.7819 239.579 22.8958 276.981C24.8427 288.927 25.0453 301.25 28.9304 312.704C32.0049 321.769 37.2907 329.965 43.4045 337.299C68.1683 367.217 107.803 384.266 146.626 381.701C172.236 380.006 196.841 370.388 222.521 369.325C261.222 367.718 300.283 385.637 337.821 376.141C355.132 371.749 370.461 361.867 385.19 351.801C414.42 331.818 444.849 307.311 451.641 272.624C456.627 247.151 447.747 220.299 453.94 195.098C457.535 180.473 465.983 167.481 470.441 153.093C479.911 122.587 469.797 87.8823 448.223 64.2801C426.648 40.678 394.986 27.6428 363.078 24.8759C342.155 23.0576 321.1 25.3502 300.098 24.9462C248.844 24.0151 207.527 -14.7919 154.344 6.22782Z" fill="#649A3D"/>
<path opacity="0.24" d="M110.534 310.289C108.349 310.728 106.023 311.299 104.552 312.924C102.482 315.278 102.949 319.073 104.843 321.576C106.737 324.079 109.688 325.502 112.613 326.618C126.391 331.888 141.526 331.932 156.273 331.95C186.041 331.95 216.936 331.774 243.893 319.169C222.107 310.781 201.819 311.194 179.143 309.595C155.551 308.005 134.135 305.475 110.534 310.289Z" fill="#649A3D"/>
<path d="M289.509 173.12L275.502 180.771L255.645 229.671L297.685 206.719L289.509 173.12Z" fill="#649A3D"/>
<path d="M349.899 173.12L363.906 180.771L383.763 229.671L341.724 206.719L349.899 173.12Z" fill="#649A3D"/>
<path d="M289.509 173.12L275.502 180.771L255.645 229.671L297.685 206.719L289.509 173.12Z" fill="url(#paint0_linear)"/>
<path d="M349.899 173.12L363.906 180.771L383.763 229.671L341.724 206.719L349.899 173.12Z" fill="url(#paint1_linear)"/>
<path d="M183.741 307.127C183.47 308.076 183.527 309.09 183.905 310.003C184.282 310.916 184.957 311.676 185.82 312.16C186.679 312.543 187.581 312.82 188.507 312.985C191.349 313.68 193.979 315.051 196.172 316.982C196.529 317.217 196.819 317.538 197.017 317.917C197.214 318.295 197.311 318.717 197.299 319.143C197.097 320.118 195.951 320.531 194.982 320.759C192.945 321.311 190.864 321.69 188.763 321.892C184.49 322.182 180.262 321.014 176.139 319.828C174.571 319.38 172.21 318.704 171.848 316.885C171.776 315.633 171.835 314.375 172.025 313.135L172.298 306.81" fill="#445267"/>
<path d="M159.4 314.672C159.213 315.155 159.17 315.681 159.276 316.188C159.383 316.694 159.634 317.159 159.999 317.527C160.741 318.249 161.587 318.857 162.51 319.327C164.947 320.801 167.096 322.703 168.853 324.94C169.664 325.968 170.421 327.312 169.91 328.515C169.638 329.073 169.206 329.538 168.668 329.85C166.91 330.87 164.883 331.336 162.854 331.185C157.735 331.054 150.168 327.865 148.688 322.34C148.221 320.627 148.732 318.282 148.803 316.517L148.988 312.256" fill="#445267"/>
<path d="M188.411 209.424L184.429 308.681C182.892 309.807 181.049 310.441 179.143 310.5C175.469 310.71 174.809 310.974 172.166 308.576L160.625 204.479L188.411 203.899V209.424Z" fill="#445267"/>
<path d="M188.411 209.424L184.429 308.681C182.892 309.807 181.049 310.441 179.143 310.5C175.469 310.71 174.809 310.974 172.166 308.576L160.625 204.479L188.411 203.899V209.424Z" fill="url(#paint2_linear)"/>
<path d="M172.712 218.34L161.26 314.874C161.26 314.874 159.603 316.569 155.093 316.631C149.975 316.692 149.508 315.998 148.362 313.416L146.098 202.687L172.395 207.158L172.712 218.34Z" fill="#445267"/>
<path d="M172.712 218.34L161.26 314.874C161.26 314.874 159.603 316.569 155.093 316.631C149.975 316.692 149.508 315.998 148.362 313.416L146.098 202.687L172.395 207.158L172.712 218.34Z" fill="url(#paint3_linear)"/>
<path d="M176.28 208.677C172.691 209.887 168.995 210.752 165.241 211.26C160.264 211.769 155.049 209.371 151.146 209.169C145.94 208.906 145.799 208.739 145.799 205.357C145.799 203.653 189.089 199.569 189.089 199.569C189.089 199.569 188.886 202.687 188.895 205.568C188.895 207.729 187.97 207.606 184.032 207.834C180.094 208.063 179.337 206.868 176.28 208.677Z" fill="#F2FBFF"/>
<path d="M159.198 132.469C159.198 132.469 151.939 134.349 146.759 138.108C143.561 140.427 145.772 205.357 145.772 205.357C146.089 205.304 160 210.926 173.452 208.616C184.904 206.648 189.036 201.29 189.036 201.29C189.036 201.29 190.067 138.986 187.838 136.43C186.851 135.288 175.954 131.274 175.954 131.274C175.954 131.274 171.197 138.407 159.198 132.469Z" fill="#649A3D"/>
<path d="M159.198 132.469C159.198 132.469 151.939 134.349 146.759 138.108C143.561 140.427 145.772 205.357 145.772 205.357C146.089 205.304 160 210.926 173.452 208.616C184.904 206.648 189.036 201.29 189.036 201.29C189.036 201.29 190.067 138.986 187.838 136.43C186.851 135.288 175.954 131.274 175.954 131.274C175.954 131.274 171.197 138.407 159.198 132.469Z" fill="url(#paint4_linear)"/>
<path d="M161.577 118.046L159.198 132.469C159.198 132.469 164.484 140.234 171.241 139.074C177.998 137.915 176.298 134.788 176.298 134.788L175.417 122.605C175.417 122.605 169.347 123.668 161.577 118.046Z" fill="#C8A59C"/>
<path d="M160.74 123.105L161.621 118.046C169.391 123.668 173.426 121.278 173.426 121.278L175.302 127.822C174.246 128.924 172.825 129.604 171.303 129.737C167.532 130.001 163.762 127.058 160.74 123.105Z" fill="#B58B81"/>
<path d="M159.498 130.73L152.45 134.032C152.45 134.032 163.55 145.733 166.933 145.504C166.933 145.504 170.131 139.584 173.1 138.653L159.498 130.73Z" fill="#F2FBFF"/>
<path d="M175.822 132.741C175.24 134.838 174.33 136.83 173.126 138.644C173.787 138.899 178.095 141.894 178.165 143.914C178.165 143.914 182.447 134.252 180.676 132.732C179.195 131.981 177.675 131.309 176.122 130.721L175.822 132.741Z" fill="#F2FBFF"/>
<path d="M149.622 136.395C149.622 136.395 138.725 139.909 137.491 157.257C136.364 173.068 133.527 184.548 135.835 189.23C138.839 195.335 159.85 196.345 159.85 196.345C160.358 193.306 160.229 190.196 159.471 187.21L147.957 182.625C147.957 182.625 149.807 139.101 149.622 136.395Z" fill="#649A3D"/>
<path d="M155.489 107.54C156.062 115.543 164.299 129.684 172.315 129.114C180.332 128.543 182.667 111.985 182.094 103.983C181.521 95.9809 177.02 91.4397 168.985 92.0106C167.076 92.1465 165.213 92.656 163.502 93.51C161.79 94.3641 160.264 95.5459 159.011 96.988C157.758 98.4302 156.801 100.104 156.197 101.915C155.593 103.726 155.352 105.637 155.489 107.54Z" fill="#C8A59C"/>
<path d="M174.386 195.089C174.192 193.561 174.914 192.094 175.126 189.494C175.337 186.894 173.646 186.217 171.17 185.98C170.492 185.901 169.963 185.822 169.514 185.752C167.206 186.305 169.047 189.098 169.17 191.022C169.294 192.946 168.862 195.704 169.532 196.292C169.813 196.547 171.937 196.433 174.394 196.117C174.434 195.775 174.431 195.43 174.386 195.089Z" fill="#B58B81"/>
<path d="M175.91 120.848C175.91 120.848 175.69 120.646 174.007 120.769C172.009 120.871 170.007 120.729 168.043 120.347C166.748 120.022 166.132 120.224 166.281 121.955C166.431 123.685 167.788 125.222 171.188 125.407C175.003 125.609 176.606 124.177 176.906 122.464C177.117 121.226 176.333 120.813 175.91 120.848Z" fill="#C8A59C"/>
<path d="M161.26 187.482C162.69 187.179 164.099 186.786 165.479 186.305C167.294 185.62 167.867 186.024 170.527 186.305C173.188 186.586 175.011 187.262 174.782 189.924C174.553 192.585 173.787 194.079 173.99 195.633C174.192 197.188 173.708 198.523 171.347 198.576C168.986 198.629 161.26 196.257 161.26 196.257" fill="#C8A59C"/>
<path d="M158.687 186.788H162.731C162.731 186.788 164.493 192.603 162.202 196.635L157.736 196.45C157.736 196.45 159.251 190.794 158.687 186.788Z" fill="#F2FBFF"/>
<path d="M160.731 189.608C161.222 189.608 161.62 189.187 161.62 188.668C161.62 188.149 161.222 187.728 160.731 187.728C160.239 187.728 159.841 188.149 159.841 188.668C159.841 189.187 160.239 189.608 160.731 189.608Z" fill="#D2E8EC"/>
<path d="M176.491 111.317C176.359 110.809 176.329 110.279 176.403 109.759C176.477 109.239 176.654 108.739 176.923 108.287C177.187 107.833 177.54 107.437 177.96 107.121C178.381 106.806 178.861 106.578 179.372 106.451C179.89 106.292 180.434 106.239 180.973 106.296C181.512 106.352 182.033 106.517 182.506 106.781C182.979 107.044 183.394 107.4 183.725 107.828C184.056 108.255 184.297 108.745 184.433 109.268C184.569 109.791 184.597 110.336 184.516 110.87C184.435 111.404 184.246 111.916 183.96 112.375C183.675 112.834 183.299 113.231 182.856 113.542C182.412 113.852 181.91 114.069 181.38 114.181H181.239C180.23 114.407 179.173 114.235 178.288 113.701C177.403 113.167 176.759 112.313 176.491 111.317ZM179.61 107.382C178.829 107.585 178.16 108.088 177.751 108.781C177.341 109.474 177.224 110.301 177.425 111.08C177.574 111.658 177.891 112.18 178.335 112.579C178.78 112.979 179.332 113.24 179.924 113.328C180.516 113.417 181.121 113.33 181.664 113.078C182.206 112.826 182.662 112.42 182.975 111.911C183.288 111.403 183.444 110.813 183.423 110.217C183.402 109.62 183.206 109.043 182.858 108.558C182.51 108.072 182.027 107.699 181.468 107.485C180.909 107.271 180.3 107.226 179.715 107.356L179.61 107.382Z" fill="#292F67"/>
<path d="M168.307 114.243C167.791 113.941 167.34 113.54 166.98 113.064C166.621 112.587 166.359 112.045 166.211 111.467C165.987 110.599 166.027 109.685 166.324 108.84C166.621 107.995 167.163 107.256 167.881 106.718C168.599 106.179 169.461 105.865 170.358 105.815C171.254 105.764 172.146 105.98 172.92 106.434C173.694 106.889 174.316 107.562 174.707 108.368C175.098 109.175 175.24 110.079 175.116 110.966C174.992 111.853 174.607 112.684 174.01 113.353C173.413 114.022 172.63 114.5 171.761 114.726H171.593C170.476 114.99 169.3 114.817 168.307 114.243ZM169.717 106.873C169.257 106.989 168.824 107.196 168.445 107.481C168.066 107.765 167.747 108.122 167.507 108.531C167.268 108.94 167.113 109.392 167.05 109.862C166.988 110.331 167.02 110.808 167.144 111.265C167.321 111.943 167.694 112.555 168.217 113.024C168.74 113.493 169.39 113.798 170.085 113.901C170.781 114.005 171.491 113.902 172.129 113.606C172.766 113.31 173.302 112.834 173.67 112.236C174.038 111.639 174.222 110.946 174.198 110.246C174.175 109.545 173.945 108.867 173.538 108.295C173.13 107.723 172.564 107.284 171.908 107.031C171.252 106.778 170.536 106.723 169.849 106.873H169.717Z" fill="#292F67"/>
<path d="M176.385 110.369L177.31 110.097C177.251 109.911 177.151 109.741 177.017 109.6C176.882 109.458 176.718 109.349 176.535 109.28C176.127 109.168 175.699 109.147 175.282 109.218C174.865 109.29 174.469 109.452 174.121 109.692L174.579 110.571C175.522 110.061 175.98 110.114 176.165 110.193C176.258 110.221 176.337 110.284 176.385 110.369Z" fill="#292F67"/>
<path d="M166.589 110.114L166.554 109.157L161.057 109.315L161.101 110.272L166.589 110.114Z" fill="#292F67"/>
<path d="M187.838 136.43C187.838 136.43 193.926 153.348 197.714 167.06C201.502 180.771 212.69 167.297 212.69 167.297C212.69 167.297 218.857 167.06 219.086 170.81C219.315 174.561 215.562 186.621 204.867 186.885C194.172 187.148 182.843 173.173 182.843 173.173L187.838 136.43Z" fill="#649A3D"/>
<path d="M204.215 195.212L182.465 194.896C181.901 194.927 181.338 194.827 180.821 194.602C180.304 194.377 179.847 194.034 179.487 193.601C179.127 193.167 178.874 192.656 178.748 192.107C178.623 191.559 178.628 190.988 178.764 190.442L187.072 152.101C187.396 150.866 188.121 149.773 189.132 148.992C190.144 148.21 191.386 147.784 192.666 147.779L214.417 148.095C214.981 148.062 215.545 148.161 216.063 148.385C216.581 148.61 217.039 148.953 217.4 149.387C217.76 149.82 218.013 150.333 218.137 150.882C218.262 151.432 218.255 152.003 218.117 152.549L209.818 190.89C209.492 192.125 208.766 193.219 207.753 194C206.74 194.781 205.496 195.207 204.215 195.212Z" fill="#649A3D"/>
<path d="M204.215 195.212L182.465 194.896C181.901 194.927 181.338 194.827 180.821 194.602C180.304 194.377 179.847 194.034 179.487 193.601C179.127 193.167 178.874 192.656 178.748 192.107C178.623 191.559 178.628 190.988 178.764 190.442L187.072 152.101C187.396 150.866 188.121 149.773 189.132 148.992C190.144 148.21 191.386 147.784 192.666 147.779L214.417 148.095C214.981 148.062 215.545 148.161 216.063 148.385C216.581 148.61 217.039 148.953 217.4 149.387C217.76 149.82 218.013 150.333 218.137 150.882C218.262 151.432 218.255 152.003 218.117 152.549L209.818 190.89C209.492 192.125 208.766 193.219 207.753 194C206.74 194.781 205.496 195.207 204.215 195.212Z" fill="url(#paint5_linear)"/>
<path d="M204.365 195.44L183.557 195.133C183.019 195.16 182.482 195.06 181.989 194.843C181.496 194.626 181.061 194.297 180.718 193.882C180.376 193.467 180.135 192.978 180.016 192.454C179.897 191.93 179.903 191.385 180.033 190.864L187.962 154.174C188.275 152.992 188.971 151.946 189.941 151.198C190.911 150.451 192.101 150.042 193.327 150.037L214.144 150.344C214.682 150.315 215.22 150.413 215.714 150.63C216.208 150.846 216.644 151.176 216.987 151.591C217.33 152.006 217.57 152.496 217.688 153.021C217.807 153.546 217.799 154.091 217.668 154.613L209.739 191.303C209.425 192.486 208.728 193.533 207.756 194.281C206.785 195.029 205.593 195.437 204.365 195.44Z" fill="#649A3D"/>
<path d="M218.381 169.062C218.365 168.213 218.182 167.374 217.843 166.594C217.611 165.802 217.144 165.098 216.504 164.574C215.796 164.176 214.991 163.982 214.179 164.012C213.359 164.012 212.531 164.012 211.712 164.012C210.808 163.997 209.911 164.158 209.069 164.486C207.865 165.139 206.93 166.193 206.426 167.464C205.299 169.862 205.061 172.91 206.673 175.009C207.385 175.843 208.223 176.56 209.157 177.135C210.17 177.829 211.36 178.558 212.549 178.233C213.115 178.034 213.632 177.717 214.064 177.302L215.826 175.844C216.427 175.398 216.936 174.84 217.324 174.201C217.647 173.376 217.803 172.495 217.782 171.61C218.024 170.771 218.224 169.921 218.381 169.062Z" fill="#C8A59C"/>
<path d="M181.019 93.6092C179.889 90.9362 178.236 88.5145 176.156 86.4856L175.989 88.093C172.687 86.5895 169.124 85.7422 165.497 85.5984L165.814 86.7227C164.495 86.3941 163.229 85.8826 162.052 85.2031L160.916 87.2234C160.144 86.6125 159.297 86.1019 158.396 85.7038L156.925 90.9741C156.509 90.7524 156.124 90.4778 155.78 90.1572C155.392 89.8937 154.767 89.8146 154.52 90.2099C154.425 90.4001 154.385 90.6132 154.406 90.8248V93.091L152.238 92.318C152.146 92.2749 152.045 92.2525 151.943 92.2525C151.841 92.2525 151.74 92.2749 151.648 92.318C151.576 92.3776 151.517 92.4512 151.475 92.5342C151.432 92.6173 151.407 92.7081 151.401 92.8011C149.825 100.654 153.163 110.869 158.352 116.974C158.552 116.034 158.453 115.054 158.07 114.172C157.639 113.048 156.308 112.415 156.537 111.23C156.598 110.63 156.879 110.074 157.327 109.669C157.774 109.263 158.356 109.037 158.96 109.034C160.643 109.227 160.017 109.842 161.215 111.036C161.638 108.709 160.625 104.888 161.356 102.648C161.598 102.058 161.976 101.534 162.457 101.116C162.939 100.697 163.513 100.397 164.131 100.239C164.75 100.082 165.398 100.07 166.022 100.206C166.646 100.342 167.229 100.622 167.726 101.023C167.673 99.5295 169.435 98.5721 170.932 98.6248C172.43 98.6775 174.13 99.2485 175.716 99.4417C177.064 99.5998 178.447 100.54 179.742 100.522C183.072 100.469 181.733 95.4802 181.019 93.6092Z" fill="#445267"/>
<path opacity="0.24" d="M318.969 302.014C332.363 302.014 343.222 300.697 343.222 299.072C343.222 297.447 332.363 296.129 318.969 296.129C305.574 296.129 294.716 297.447 294.716 299.072C294.716 300.697 305.574 302.014 318.969 302.014Z" fill="#649A3D"/>
<path opacity="0.24" d="M317.498 321.207C339.222 321.207 356.832 319.072 356.832 316.437C356.832 313.803 339.222 311.668 317.498 311.668C295.774 311.668 278.163 313.803 278.163 316.437C278.163 319.072 295.774 321.207 317.498 321.207Z" fill="#649A3D"/>
<path d="M318.229 287.433C352.257 287.433 379.843 284.087 379.843 279.958C379.843 275.83 352.257 272.483 318.229 272.483C284.2 272.483 256.615 275.83 256.615 279.958C256.615 284.087 284.2 287.433 318.229 287.433Z" stroke="white" stroke-width="6.21" stroke-miterlimit="10"/>
<path d="M319.603 48.9698C319.603 48.9698 253.399 87.7329 292.293 208.625H346.261C346.261 208.625 386.327 112.424 319.603 48.9698Z" fill="#649A3D"/>
<path d="M319.603 48.9698C319.603 48.9698 253.399 87.7329 292.293 208.625H346.261C346.261 208.625 386.327 112.424 319.603 48.9698Z" fill="url(#paint6_linear)"/>
<path d="M318.475 145.689C328.483 145.689 336.597 137.599 336.597 127.62C336.597 117.641 328.483 109.552 318.475 109.552C308.467 109.552 300.354 117.641 300.354 127.62C300.354 137.599 308.467 145.689 318.475 145.689Z" fill="#649A3D"/>
<path d="M296.821 251.095L303.481 238.999C304.659 253.847 308.316 268.394 314.3 282.04C325.056 271.368 327.752 255.258 329.831 240.273C332.885 247.628 335.613 255.103 338.015 262.698C342.897 253.044 344.489 242.066 342.552 231.428L346.692 238.455C349.522 228.261 348.301 217.372 343.283 208.054C334.732 208.686 326.163 209.105 317.577 209.31C313.466 209.415 309.337 209.468 305.19 209.468C302.468 209.468 297.456 208.405 294.971 209.784C290.197 212.419 291.941 223.777 292.24 228.441C292.488 232.298 292.997 236.133 293.764 239.922C294.126 241.705 297.5 249.865 296.821 251.095Z" fill="#649A3D"/>
<path d="M296.821 251.095L303.481 238.999C304.659 253.847 308.316 268.394 314.3 282.04C325.056 271.368 327.752 255.258 329.831 240.273C332.885 247.628 335.613 255.103 338.015 262.698C342.897 253.044 344.489 242.066 342.552 231.428L346.692 238.455C349.522 228.261 348.301 217.372 343.283 208.054C334.732 208.686 326.163 209.105 317.577 209.31C313.466 209.415 309.337 209.468 305.19 209.468C302.468 209.468 297.456 208.405 294.971 209.784C290.197 212.419 291.941 223.777 292.24 228.441C292.488 232.298 292.997 236.133 293.764 239.922C294.126 241.705 297.5 249.865 296.821 251.095Z" fill="url(#paint7_linear)"/>
<path d="M305.983 235.907L310.036 228.529C310.759 237.583 312.992 246.453 316.643 254.775C323.197 248.266 324.845 238.437 326.113 229.302C327.981 233.793 329.646 238.355 331.108 242.987C334.085 237.096 335.056 230.399 333.874 223.909L336.394 228.213C338.134 221.982 337.389 215.321 334.315 209.626C329.1 210.013 323.875 210.27 318.643 210.399C316.123 210.458 313.604 210.487 311.084 210.487C309.428 210.487 306.371 209.837 304.856 210.68C301.94 212.305 302.997 219.218 303.182 222.099C303.337 224.459 303.649 226.807 304.116 229.126C304.336 230.18 306.388 235.161 305.983 235.907Z" fill="url(#paint8_linear)"/>
<path d="M306.072 61.3111C306.072 61.3111 319.797 65.9226 330.959 61.3111L319.876 49.2949C319.612 49.0083 319.289 48.7819 318.929 48.6308C318.57 48.4797 318.181 48.4075 317.791 48.4192C317.401 48.4309 317.018 48.5261 316.668 48.6984C316.318 48.8707 316.009 49.116 315.762 49.4178L306.072 61.3111Z" fill="#649A3D"/>
<path d="M306.072 61.3112C306.072 61.3112 319.797 65.9227 330.959 61.3112L319.744 49.1544C319.496 48.8858 319.193 48.6736 318.856 48.5319C318.519 48.3903 318.155 48.3226 317.789 48.3334C317.423 48.3442 317.064 48.4333 316.735 48.5947C316.407 48.756 316.117 48.9858 315.886 49.2686L306.072 61.3112Z" fill="url(#paint9_linear)"/>
<path d="M341.953 252.667C351.185 253.545 357.07 254.977 357.07 256.541C357.07 259.316 338.57 261.565 315.665 261.565C292.76 261.565 274.26 259.316 274.26 256.541C274.26 254.248 286.981 252.307 304.345 251.709" stroke="white" stroke-width="4.17" stroke-miterlimit="10"/>
</g>
<defs>
<linearGradient id="paint0_linear" x1="282.585" y1="160.156" x2="263.447" y2="348.993" gradientUnits="userSpaceOnUse">
<stop stop-color="#010101" stop-opacity="0"/>
<stop offset="0.95" stop-color="#010101"/>
</linearGradient>
<linearGradient id="paint1_linear" x1="17891.9" y1="11039.3" x2="16244.2" y2="23096.2" gradientUnits="userSpaceOnUse">
<stop stop-color="#010101" stop-opacity="0"/>
<stop offset="0.95" stop-color="#010101"/>
</linearGradient>
<linearGradient id="paint2_linear" x1="6963.05" y1="36431.7" x2="190.013" y2="34592.8" gradientUnits="userSpaceOnUse">
<stop stop-color="#010101" stop-opacity="0"/>
<stop offset="0.95" stop-color="#010101"/>
</linearGradient>
<linearGradient id="paint3_linear" x1="6192.75" y1="37558.1" x2="2426.17" y2="37257.4" gradientUnits="userSpaceOnUse">
<stop stop-color="#010101" stop-opacity="0"/>
<stop offset="0.95" stop-color="#010101"/>
</linearGradient>
<linearGradient id="paint4_linear" x1="9175.32" y1="15711.8" x2="7135.63" y2="30612.9" gradientUnits="userSpaceOnUse">
<stop stop-color="#010101" stop-opacity="0"/>
<stop offset="0.95" stop-color="#010101"/>
</linearGradient>
<linearGradient id="paint5_linear" x1="9539.23" y1="8158.68" x2="9865.43" y2="15760.3" gradientUnits="userSpaceOnUse">
<stop stop-color="#010101" stop-opacity="0"/>
<stop offset="0.95" stop-color="#010101"/>
</linearGradient>
<linearGradient id="paint6_linear" x1="271.036" y1="131.995" x2="345.326" y2="128.134" gradientUnits="userSpaceOnUse">
<stop stop-color="white" stop-opacity="0"/>
<stop offset="0.95" stop-color="white"/>
</linearGradient>
<linearGradient id="paint7_linear" x1="21452.9" y1="24428.9" x2="21961.2" y2="11442.3" gradientUnits="userSpaceOnUse">
<stop stop-color="#010101" stop-opacity="0"/>
<stop offset="0.95" stop-color="#010101"/>
</linearGradient>
<linearGradient id="paint8_linear" x1="13240.1" y1="13819.3" x2="13428.7" y2="8985.56" gradientUnits="userSpaceOnUse">
<stop stop-color="#010101" stop-opacity="0"/>
<stop offset="0.95" stop-color="#010101"/>
</linearGradient>
<linearGradient id="paint9_linear" x1="9810.46" y1="1318.69" x2="8858.93" y2="1044.63" gradientUnits="userSpaceOnUse">
<stop stop-color="#010101" stop-opacity="0"/>
<stop offset="0.95" stop-color="#010101"/>
</linearGradient>
<clipPath id="clip0">
<rect width="474" height="382" fill="white"/>
</clipPath>
</defs>
</svg>
