<svg width="101" height="26" viewBox="0 0 101 26" fill="none" xmlns="http://www.w3.org/2000/svg">
<path d="M12.5632 25.1258C19.2366 25.1258 24.6465 19.7159 24.6465 13.0425C24.6465 6.36909 19.2366 0.959229 12.5632 0.959229C5.88984 0.959229 0.47998 6.36909 0.47998 13.0425C0.47998 19.7159 5.88984 25.1258 12.5632 25.1258Z" fill="#279FEA"/>
<path d="M10.2132 7.8283L12.3666 6.66334L12.3262 12.8664L7.0007 15.9931V13.3354L5.6441 14.1725V17.4404L7.88828 18.6962C8.63466 19.1147 8.68509 19.1652 8.77587 19.024L9.78449 18.323L7.6916 17.0925L13.0625 14.0111L18.4384 17.037L16.1489 18.3885L17.5509 19.1097L20.3952 17.4858V17.3446C20.3952 14.2179 20.3952 13.9859 20.2086 13.9405L19.089 13.3807L19.0386 15.8519L13.6677 12.7756V6.61795L15.9572 7.9695V6.33554L13.1129 4.65619L12.9717 4.70662C10.2131 6.24476 10.0266 6.33554 10.077 6.52214L10.2132 7.8283Z" fill="white"/>
<path d="M15.8564 19.8158L14.7822 19.1652L13.7081 19.7704V17.5312H12.412V19.8158L11.1008 19.024L9.9812 19.957L13.0071 21.7271L13.1029 21.6817C15.9623 20.1184 15.9623 20.1184 15.8564 19.8612V19.8158Z" fill="white"/>
<path d="M5.7702 12.352H5.86602L6.98558 11.7014V10.4861L8.90196 11.6056L9.55756 10.4407L7.54032 9.3211L8.86162 8.51925L8.5792 7.12231L5.55334 8.93783V9.07904C5.58865 12.3066 5.58865 12.3066 5.7702 12.352Z" fill="white"/>
<path d="M17.1323 11.6056L19.1496 10.4911V12.0494L20.5062 12.5134V8.98319L20.3952 8.9025C18.2922 7.64173 17.7778 7.31897 17.5912 7.31897C17.5568 7.32358 17.5248 7.33955 17.5005 7.36436L17.45 7.40975V8.67052L18.4587 9.27569L16.4969 10.3499L17.1323 11.6056Z" fill="white"/>
<path d="M30.6881 9.7199H33.1189V12.1507C33.7795 10.5318 34.9949 9.4627 36.8205 9.51817V12.1002H36.6692C34.541 12.1002 33.0684 13.5173 33.0684 16.3566V20.3911H30.6881V9.7199Z" fill="white"/>
<path d="M37.7837 15.0908C37.7837 11.9994 39.9119 9.46268 42.9025 9.46268C46.246 9.46268 47.9456 12.1506 47.9456 15.2421C47.9522 15.4802 47.9353 15.7184 47.8951 15.9531H40.2145C40.2783 16.7079 40.6261 17.4104 41.1877 17.9187C41.7494 18.427 42.483 18.7032 43.2404 18.6915C43.7824 18.6968 44.3193 18.5862 44.8151 18.367C45.3109 18.1478 45.754 17.8252 46.1149 17.4207L47.5371 18.6915C47.0228 19.3377 46.3659 19.8561 45.6178 20.2061C44.8698 20.5561 44.0509 20.7281 43.2252 20.7088C42.4945 20.7127 41.7706 20.5687 41.097 20.2855C40.4234 20.0023 39.8141 19.5857 39.3057 19.0609C38.7974 18.536 38.4004 17.9137 38.1389 17.2314C37.8773 16.5491 37.7565 15.821 37.7837 15.0908ZM45.6106 14.3293C45.4593 12.7609 44.5465 11.49 42.9226 11.49C41.4551 11.49 40.4414 12.66 40.1842 14.3293H45.6106Z" fill="white"/>
<path d="M50.1494 5.61481H52.5852V20.4113H50.1494V5.61481Z" fill="white"/>
<path d="M54.7134 15.0908C54.7134 11.9994 56.8416 9.46268 59.8322 9.46268C63.1758 9.46268 64.8753 12.1506 64.8753 15.2421C64.8819 15.4802 64.865 15.7184 64.8249 15.9531H57.1442C57.2057 16.7088 57.5528 17.4127 58.115 17.9214C58.6771 18.4302 59.412 18.7056 60.1701 18.6915C60.7061 18.6915 61.2361 18.5783 61.7254 18.3593C62.2147 18.1403 62.6522 17.8204 63.0093 17.4207L64.4265 18.6915C63.9132 19.3376 63.2572 19.856 62.51 20.206C61.7627 20.556 60.9446 20.7281 60.1196 20.7088C57.0434 20.6634 54.7134 18.3839 54.7134 15.0908ZM62.4647 14.3293C62.3134 12.7609 61.4006 11.49 59.7818 11.49C58.3092 11.49 57.2955 12.66 57.0434 14.3293H62.4647Z" fill="white"/>
<path d="M66.1663 17.3199C66.1663 14.9899 67.9415 13.825 70.5236 13.825C71.4881 13.8239 72.4467 13.9771 73.3628 14.2789V14.0267C73.3628 12.5138 72.45 11.6968 70.7757 11.6968C69.7435 11.6991 68.7237 11.9227 67.7852 12.3524L67.1296 10.4058C68.367 9.8285 69.7179 9.53556 71.0833 9.54844C72.6534 9.54844 73.8184 9.95357 74.5782 10.7638C75.3397 11.5253 75.6927 12.6903 75.6927 14.057V20.4113H73.3477V19.095C72.9382 19.597 72.4197 19.9991 71.8316 20.2708C71.2436 20.5426 70.6014 20.6768 69.9537 20.6634C67.9415 20.613 66.1663 19.4833 66.1663 17.3199ZM73.4133 16.5583V15.8523C72.6542 15.5618 71.8454 15.423 71.0329 15.4438C69.4595 15.4438 68.5467 16.1045 68.5467 17.219V17.2694C68.5467 18.278 69.4595 18.8933 70.5639 18.8933C72.1979 18.8429 73.4133 17.9301 73.4133 16.5583Z" fill="white"/>
<path d="M77.3821 18.979L78.4462 17.3047C79.4276 18.0943 80.6328 18.5549 81.8907 18.6209C82.8993 18.6209 83.5146 18.167 83.5146 17.456V17.4055C83.5146 16.5936 82.4 16.291 81.1846 15.8926C79.5961 15.4488 77.8865 14.7882 77.8865 12.7608V12.7104C77.8865 10.6932 79.5608 9.41223 81.6385 9.41223C83.0143 9.4349 84.3535 9.8591 85.4914 10.6327L84.5282 12.3524C83.6493 11.7729 82.6377 11.4258 81.5881 11.3437C80.6753 11.3437 80.1155 11.8027 80.1155 12.4078V12.4583C80.1155 13.2702 81.2351 13.5728 82.5009 13.9712C84.0138 14.4755 85.7436 15.1866 85.7436 17.113V17.2643C85.7436 19.4934 84.0189 20.6079 81.8402 20.6079C80.2102 20.599 78.634 20.0231 77.3821 18.979Z" fill="white"/>
<path d="M87.1456 15.0908C87.1456 11.9994 89.2788 9.46268 92.2643 9.46268C95.6129 9.46268 97.3074 12.1506 97.3074 15.2421C97.314 15.4802 97.2971 15.7184 97.257 15.9531H89.5309C89.5924 16.7088 89.9395 17.4127 90.5017 17.9214C91.0638 18.4302 91.7987 18.7056 92.5568 18.6915C93.0922 18.6918 93.6215 18.5786 94.11 18.3596C94.5985 18.1405 95.0351 17.8206 95.391 17.4207L96.8132 18.6915C96.2999 19.3376 95.6439 19.856 94.8967 20.206C94.1495 20.556 93.3313 20.7281 92.5064 20.7088C91.7823 20.7026 91.0668 20.5511 90.4023 20.2633C89.7378 19.9755 89.1379 19.5573 88.638 19.0334C88.138 18.5095 87.7484 17.8906 87.492 17.2134C87.2357 16.5362 87.1179 15.8144 87.1456 15.0908ZM94.9523 14.3293C94.801 12.7609 93.8882 11.49 92.2643 11.49C90.7968 11.49 89.7831 12.66 89.5309 14.3293H94.9523Z" fill="white"/>
<path d="M97.141 9.65937H97.6453V11.1471H97.9176V9.65937H98.4219V9.39713H97.1864L97.141 9.65937Z" fill="white"/>
<path d="M99.8895 9.39713L99.4659 10.6377L99.0675 9.39713H98.6187V11.1572H98.891V9.7451L99.365 11.1572H99.5718L100.041 9.7451V11.1572H100.313V9.39713H99.8895Z" fill="white"/>
</svg>
