<svg width="25" height="26" viewBox="0 0 25 26" fill="none" xmlns="http://www.w3.org/2000/svg">
<path d="M12.5632 25.1258C19.2366 25.1258 24.6465 19.7159 24.6465 13.0425C24.6465 6.36909 19.2366 0.959229 12.5632 0.959229C5.88984 0.959229 0.47998 6.36909 0.47998 13.0425C0.47998 19.7159 5.88984 25.1258 12.5632 25.1258Z" fill="#279FEA"/>
<path d="M10.2132 7.8283L12.3666 6.66334L12.3262 12.8664L7.0007 15.9931V13.3354L5.6441 14.1725V17.4404L7.88828 18.6962C8.63466 19.1147 8.68509 19.1652 8.77587 19.024L9.78449 18.323L7.6916 17.0925L13.0625 14.0111L18.4384 17.037L16.1489 18.3885L17.5509 19.1097L20.3952 17.4858V17.3446C20.3952 14.2179 20.3952 13.9859 20.2086 13.9405L19.089 13.3807L19.0386 15.8519L13.6677 12.7756V6.61795L15.9572 7.9695V6.33554L13.1129 4.65619L12.9717 4.70662C10.2131 6.24476 10.0266 6.33554 10.077 6.52214L10.2132 7.8283Z" fill="white"/>
<path d="M15.8564 19.8158L14.7822 19.1652L13.7081 19.7704V17.5312H12.412V19.8158L11.1008 19.024L9.9812 19.957L13.0071 21.7271L13.1029 21.6817C15.9623 20.1184 15.9623 20.1184 15.8564 19.8612V19.8158Z" fill="white"/>
<path d="M5.7702 12.352H5.86602L6.98558 11.7014V10.4861L8.90196 11.6056L9.55756 10.4407L7.54032 9.3211L8.86162 8.51925L8.5792 7.12231L5.55334 8.93783V9.07904C5.58865 12.3066 5.58865 12.3066 5.7702 12.352Z" fill="white"/>
<path d="M17.1323 11.6056L19.1496 10.4911V12.0494L20.5062 12.5134V8.98319L20.3952 8.9025C18.2922 7.64173 17.7778 7.31897 17.5912 7.31897C17.5568 7.32358 17.5248 7.33955 17.5005 7.36436L17.45 7.40975V8.67052L18.4587 9.27569L16.4969 10.3499L17.1323 11.6056Z" fill="white"/>
</svg>
