<svg width="83" height="21" viewBox="0 0 83 21" fill="none" xmlns="http://www.w3.org/2000/svg">
<path d="M10 20.9662C15.5228 20.9662 20 16.489 20 10.9662C20 5.44334 15.5228 0.966187 10 0.966187C4.47715 0.966187 0 5.44334 0 10.9662C0 16.489 4.47715 20.9662 10 20.9662Z" fill="#279FEA"/>
<path d="M8.05523 6.65109L9.83736 5.68698L9.80397 10.8205L5.39663 13.4082V11.2087L4.27393 11.9015V14.606L6.13119 15.6452C6.74888 15.9917 6.79062 16.0334 6.86574 15.9165L7.70047 15.3364L5.96842 14.318L10.4133 11.7679L14.8624 14.2721L12.9676 15.3907L14.1278 15.9875L16.4818 14.6436V14.5267C16.4818 11.9391 16.4818 11.7471 16.3273 11.7095L15.4008 11.2462L15.3591 13.2913L10.9142 10.7454V5.64942L12.809 6.76795V5.4157L10.4551 4.02588L10.3382 4.06761C8.05523 5.34057 7.9008 5.4157 7.94254 5.57012L8.05523 6.65109Z" fill="white"/>
<path d="M12.7256 16.5718L11.8366 16.0334L10.9476 16.5342V14.6811H9.87497V16.5718L8.78983 15.9165L7.86328 16.6886L10.3675 18.1536L10.4468 18.116C12.8132 16.8222 12.8132 16.8222 12.7256 16.6093V16.5718Z" fill="white"/>
<path d="M4.3782 10.3948H4.4575L5.38404 9.85642V8.85058L6.97001 9.77712L7.51259 8.81302L5.84314 7.88647L6.93663 7.22287L6.7029 6.06677L4.19873 7.56928V7.68614C4.22795 10.3573 4.22795 10.3573 4.3782 10.3948Z" fill="white"/>
<path d="M13.7812 9.77713L15.4507 8.85476V10.1444L16.5734 10.5284V7.60685L16.4816 7.54007C14.7412 6.49667 14.3155 6.22955 14.161 6.22955C14.1325 6.23337 14.1061 6.24659 14.0859 6.26712L14.0442 6.30468V7.34808L14.8789 7.84892L13.2554 8.7379L13.7812 9.77713Z" fill="white"/>
<path d="M25 8.21656H27.0117V10.2282C27.5584 8.88852 28.5643 8.00371 30.0751 8.04962V10.1865H29.9499C28.1886 10.1865 26.9699 11.3593 26.9699 13.709V17.0479H25V8.21656Z" fill="black"/>
<path d="M30.8725 12.6614C30.8725 10.103 32.6338 8.00366 35.1087 8.00366C37.8758 8.00366 39.2823 10.2282 39.2823 12.7866C39.2878 12.9837 39.2738 13.1808 39.2406 13.3751H32.8842C32.937 13.9998 33.2248 14.5811 33.6896 15.0018C34.1544 15.4224 34.7615 15.651 35.3884 15.6414C35.8369 15.6458 36.2813 15.5542 36.6916 15.3728C37.1019 15.1914 37.4687 14.9244 37.7673 14.5896L38.9443 15.6414C38.5187 16.1762 37.975 16.6052 37.3559 16.8948C36.7369 17.1844 36.0591 17.3268 35.3758 17.3108C34.7711 17.3141 34.172 17.1949 33.6145 16.9605C33.0571 16.7262 32.5528 16.3814 32.1321 15.947C31.7114 15.5127 31.3829 14.9977 31.1664 14.433C30.9499 13.8683 30.85 13.2657 30.8725 12.6614ZM37.35 12.0312C37.2247 10.7332 36.4693 9.68146 35.1254 9.68146C33.9109 9.68146 33.072 10.6497 32.8591 12.0312H37.35Z" fill="black"/>
<path d="M41.106 4.81921H43.1218V17.0646H41.106V4.81921Z" fill="black"/>
<path d="M44.8833 12.6614C44.8833 10.103 46.6446 8.00366 49.1195 8.00366C51.8866 8.00366 53.2932 10.2282 53.2932 12.7866C53.2986 12.9837 53.2847 13.1808 53.2514 13.3751H46.895C46.9458 14.0005 47.2331 14.583 47.6984 15.0041C48.1636 15.4251 48.7718 15.653 49.3992 15.6414C49.8428 15.6414 50.2814 15.5477 50.6863 15.3664C51.0913 15.1852 51.4534 14.9205 51.7489 14.5896L52.9217 15.6414C52.4969 16.1761 51.9541 16.6051 51.3357 16.8948C50.7172 17.1844 50.0401 17.3268 49.3574 17.3108C46.8115 17.2733 44.8833 15.3868 44.8833 12.6614ZM51.2982 12.0312C51.173 10.7332 50.4175 9.68146 49.0778 9.68146C47.8591 9.68146 47.0202 10.6497 46.8115 12.0312H51.2982Z" fill="black"/>
<path d="M54.3618 14.5062C54.3618 12.578 55.8309 11.6139 57.9678 11.6139C58.7661 11.613 59.5594 11.7398 60.3176 11.9895V11.7808C60.3176 10.5287 59.5621 9.85261 58.1765 9.85261C57.3222 9.85451 56.4783 10.0395 55.7016 10.3952L55.159 8.78416C56.1831 8.30642 57.3011 8.06399 58.4311 8.07465C59.7305 8.07465 60.6946 8.40993 61.3234 9.08049C61.9536 9.71071 62.2458 10.6748 62.2458 11.8059V17.0646H60.3051V15.9753C59.9661 16.3907 59.5371 16.7235 59.0504 16.9484C58.5637 17.1733 58.0322 17.2844 57.4962 17.2733C55.8309 17.2316 54.3618 16.2967 54.3618 14.5062ZM60.3593 13.876V13.2917C59.7311 13.0512 59.0618 12.9364 58.3894 12.9536C57.0872 12.9536 56.3318 13.5004 56.3318 14.4227V14.4645C56.3318 15.2992 57.0872 15.8084 58.0012 15.8084C59.3535 15.7666 60.3593 15.0112 60.3593 13.876Z" fill="black"/>
<path d="M63.6436 15.8793L64.5242 14.4937C65.3364 15.1472 66.3337 15.5283 67.3748 15.583C68.2095 15.583 68.7187 15.2074 68.7187 14.6189V14.5771C68.7187 13.9052 67.7963 13.6548 66.7905 13.325C65.4758 12.9578 64.0609 12.411 64.0609 10.7332V10.6915C64.0609 9.02204 65.4466 7.96194 67.1661 7.96194C68.3047 7.98071 69.413 8.33177 70.3547 8.97196L69.5576 10.3952C68.8302 9.91559 67.993 9.62839 67.1244 9.56044C66.3689 9.56044 65.9057 9.94024 65.9057 10.4411V10.4828C65.9057 11.1548 66.8322 11.4052 67.8798 11.7349C69.1319 12.1523 70.5634 12.7407 70.5634 14.3351V14.4603C70.5634 16.305 69.136 17.2274 67.333 17.2274C65.984 17.22 64.6796 16.7434 63.6436 15.8793Z" fill="black"/>
<path d="M71.7237 12.6614C71.7237 10.103 73.4892 8.00366 75.96 8.00366C78.7312 8.00366 80.1336 10.2282 80.1336 12.7866C80.1391 12.9837 80.1251 13.1808 80.0918 13.3751H73.6979C73.7487 14.0005 74.036 14.583 74.5012 15.0041C74.9665 15.4251 75.5747 15.653 76.202 15.6414C76.6451 15.6416 77.0832 15.5479 77.4874 15.3667C77.8917 15.1854 78.253 14.9206 78.5476 14.5896L79.7246 15.6414C79.2998 16.1761 78.7569 16.6051 78.1385 16.8948C77.5201 17.1844 76.843 17.3268 76.1603 17.3108C75.561 17.3057 74.9689 17.1803 74.419 16.9422C73.8691 16.704 73.3725 16.3579 72.9588 15.9243C72.5451 15.4907 72.2226 14.9786 72.0105 14.4181C71.7983 13.8576 71.7008 13.2603 71.7237 12.6614ZM78.1845 12.0312C78.0593 10.7332 77.3039 9.68146 75.96 9.68146C74.7454 9.68146 73.9065 10.6497 73.6979 12.0312H78.1845Z" fill="black"/>
<path d="M79.9961 8.16632H80.4132V9.39671H80.6384V8.16632H81.0555V7.94943H80.0336L79.9961 8.16632Z" fill="black"/>
<path d="M82.2698 7.94943L81.9194 8.97545L81.59 7.94943H81.2188V9.40505H81.444V8.23722L81.836 9.40505H82.007L82.3949 8.23722V9.40505H82.6201V7.94943H82.2698Z" fill="black"/>
</svg>
