<svg width="300" height="239" viewBox="0 0 300 239" fill="none" xmlns="http://www.w3.org/2000/svg">
<g clip-path="url(#clip0)">
<path opacity="0.24" d="M286.586 207.217C269.827 230.481 238.753 238.856 210.058 238.987C181.363 239.118 152.879 232.704 124.204 233.478C98.8939 234.166 73.4985 240.469 48.55 236.272C23.6015 232.074 -1.73483 212.235 0.0922723 187.083C0.62463 179.573 3.52302 172.47 6.35569 165.492C10.7 154.874 17.0554 143.396 21.2683 131.919C22.6993 128.092 23.8309 124.16 24.653 120.159C24.7516 119.7 24.8239 119.248 24.9028 118.788C27.2622 104.786 24.0681 90.4752 27.2819 76.1579C33.243 49.7073 49.1415 24.4569 75.4965 14.5928C98.2301 6.13886 123.442 10.4872 147.661 8.95248C170.946 7.48992 193.667 0.511627 217.012 0.0394118C240.356 -0.432804 266.094 7.52272 277.477 27.8345C285.265 41.7255 284.884 58.4826 286.56 74.315C288.959 97.001 295.945 118.966 298.824 141.599C301.703 164.233 299.915 188.722 286.586 207.217Z" fill="#80B528"/>
<path d="M43.318 120.146V131.905H21.3008C22.7318 128.079 23.8634 124.147 24.6855 120.146H43.318Z" fill="#80B528"/>
<path d="M66.032 131.905V159.228H66.1109C71.1882 159.227 76.0671 161.196 79.7168 164.718C83.3665 168.241 85.5012 173.041 85.6698 178.105C85.8384 183.169 84.0278 188.1 80.6204 191.856C77.2131 195.612 72.4759 197.9 67.4097 198.235C62.3435 198.57 57.345 196.927 53.4704 193.653C49.5957 190.379 47.1484 185.73 46.6453 180.688C46.1422 175.646 47.6228 170.606 50.7744 166.634C53.9259 162.661 58.5016 160.067 63.5345 159.399V131.905H43.0684V120.146H89.206V131.905H66.032Z" fill="#80B528"/>
<path d="M66.032 131.905V159.228H66.1109C71.1882 159.227 76.0671 161.196 79.7168 164.718C83.3665 168.241 85.5012 173.041 85.6698 178.105C85.8384 183.169 84.0278 188.1 80.6204 191.856C77.2131 195.612 72.4759 197.9 67.4097 198.235C62.3435 198.57 57.345 196.927 53.4704 193.653C49.5957 190.379 47.1484 185.73 46.6453 180.688C46.1422 175.646 47.6228 170.606 50.7744 166.634C53.9259 162.661 58.5016 160.067 63.5345 159.399V131.905H43.0684V120.146H89.206V131.905H66.032Z" fill="url(#paint0_linear)"/>
<path d="M157.183 131.905V159.228H157.255C162.325 159.231 167.196 161.2 170.837 164.72C174.479 168.239 176.608 173.034 176.774 178.09C176.939 183.147 175.129 188.069 171.725 191.819C168.321 195.568 163.59 197.85 158.531 198.183C153.472 198.516 148.482 196.874 144.614 193.604C140.746 190.333 138.303 185.691 137.801 180.656C137.299 175.622 138.778 170.59 141.925 166.624C145.072 162.657 149.641 160.067 154.666 159.399V131.905H135.554V120.146H181.665V131.905H157.183Z" fill="#80B528"/>
<path d="M157.183 131.905V159.228H157.255C162.325 159.231 167.196 161.2 170.837 164.72C174.479 168.239 176.608 173.034 176.774 178.09C176.939 183.147 175.129 188.069 171.725 191.819C168.321 195.568 163.59 197.85 158.531 198.183C153.472 198.516 148.482 196.874 144.614 193.604C140.746 190.333 138.303 185.691 137.801 180.656C137.299 175.622 138.778 170.59 141.925 166.624C145.072 162.657 149.641 160.067 154.666 159.399V131.905H135.554V120.146H181.665V131.905H157.183Z" fill="url(#paint1_linear)"/>
<path d="M249.932 131.905V159.228H250.018C255.087 159.231 259.958 161.2 263.6 164.72C267.242 168.239 269.37 173.034 269.536 178.09C269.701 183.147 267.891 188.069 264.487 191.819C261.083 195.568 256.352 197.85 251.293 198.183C246.234 198.516 241.244 196.874 237.376 193.604C233.508 190.333 231.065 185.691 230.563 180.656C230.061 175.622 231.54 170.59 234.687 166.624C237.834 162.657 242.403 160.067 247.428 159.399V131.905H228.033V120.146H274.171V131.905H249.932Z" fill="#80B528"/>
<path d="M249.932 131.905V159.228H250.018C255.087 159.231 259.958 161.2 263.6 164.72C267.242 168.239 269.37 173.034 269.536 178.09C269.701 183.147 267.891 188.069 264.487 191.819C261.083 195.568 256.352 197.85 251.293 198.183C246.234 198.516 241.244 196.874 237.376 193.604C233.508 190.333 231.065 185.691 230.563 180.656C230.061 175.622 231.54 170.59 234.687 166.624C237.834 162.657 242.403 160.067 247.428 159.399V131.905H228.033V120.146H274.171V131.905H249.932Z" fill="url(#paint2_linear)"/>
<path d="M64.1918 168.305C62.7827 168.305 61.4053 168.722 60.2337 169.504C59.0621 170.285 58.1489 171.395 57.6097 172.694C57.0705 173.993 56.9294 175.423 57.2043 176.802C57.4792 178.181 58.1577 179.448 59.1541 180.442C60.1504 181.436 61.4199 182.113 62.8019 182.388C64.1839 182.662 65.6164 182.521 66.9182 181.983C68.22 181.445 69.3327 180.534 70.1155 179.365C70.8983 178.196 71.3162 176.821 71.3162 175.415C71.3127 173.53 70.561 171.724 69.2257 170.392C67.8903 169.059 66.0802 168.309 64.1918 168.305ZM64.2641 181.678C63.024 181.678 61.8118 181.311 60.7807 180.624C59.7496 179.936 58.9459 178.959 58.4714 177.816C57.9968 176.673 57.8726 175.414 58.1146 174.201C58.3565 172.987 58.9537 171.872 59.8305 170.997C60.7074 170.122 61.8246 169.526 63.0409 169.285C64.2571 169.043 65.5178 169.167 66.6635 169.641C67.8092 170.114 68.7884 170.916 69.4774 171.945C70.1663 172.974 70.5341 174.184 70.5341 175.421C70.5323 177.08 69.8712 178.671 68.6957 179.844C67.5202 181.017 65.9264 181.677 64.2641 181.678Z" fill="white"/>
<path d="M69.1148 179.822L67.4395 181.144L72.1688 187.111L73.8441 185.789L69.1148 179.822Z" fill="white"/>
<path d="M228.072 120.146V131.906H181.935V120.146H204.537V90.3309H204.458C199.379 90.3337 194.497 88.366 190.845 84.8433C187.192 81.3207 185.056 76.5192 184.886 71.4533C184.716 66.3874 186.526 61.454 189.934 57.6954C193.342 53.9369 198.08 51.6476 203.148 51.3113C208.217 50.975 213.217 52.618 217.094 55.8932C220.97 59.1684 223.419 63.8192 223.923 68.8629C224.427 73.9067 222.946 78.9483 219.793 82.9224C216.64 86.8966 212.063 89.4921 207.028 90.1604V120.146H228.072Z" fill="#80B528"/>
<path d="M135.587 120.146V131.906H89.4492V120.146H113.386V90.3309H113.313C108.244 90.328 103.373 88.3589 99.7313 84.8394C96.0894 81.3199 93.9608 76.5256 93.7952 71.4692C93.6296 66.4127 95.44 61.4899 98.8439 57.7407C102.248 53.9914 106.979 51.7092 112.038 51.3761C117.096 51.043 122.087 52.685 125.955 55.9554C129.823 59.2258 132.266 63.8684 132.768 68.9028C133.27 73.9371 131.791 78.9689 128.644 82.9355C125.497 86.9021 120.928 89.4927 115.903 90.1604V120.146H135.587Z" fill="#80B528"/>
<path d="M135.587 120.146V131.906H89.4492V120.146H113.386V90.3309H113.313C108.244 90.328 103.373 88.3589 99.7313 84.8394C96.0894 81.3199 93.9608 76.5256 93.7952 71.4692C93.6296 66.4127 95.44 61.4899 98.8439 57.7407C102.248 53.9914 106.979 51.7092 112.038 51.3761C117.096 51.043 122.087 52.685 125.955 55.9554C129.823 59.2258 132.266 63.8684 132.768 68.9028C133.27 73.9371 131.791 78.9689 128.644 82.9355C125.497 86.9021 120.928 89.4927 115.903 90.1604V120.146H135.587Z" fill="url(#paint3_linear)"/>
<path opacity="0.24" d="M113.293 87.5501C122.513 87.5501 129.987 80.0917 129.987 70.8914C129.987 61.691 122.513 54.2327 113.293 54.2327C104.074 54.2327 96.5996 61.691 96.5996 70.8914C96.5996 80.0917 104.074 87.5501 113.293 87.5501Z" fill="#80B528"/>
<path opacity="0.24" d="M66.1175 195.622C75.3372 195.622 82.8112 188.163 82.8112 178.963C82.8112 169.763 75.3372 162.304 66.1175 162.304C56.8978 162.304 49.4238 169.763 49.4238 178.963C49.4238 188.163 56.8978 195.622 66.1175 195.622Z" fill="#80B528"/>
<path opacity="0.24" d="M157.256 195.622C166.476 195.622 173.95 188.163 173.95 178.963C173.95 169.763 166.476 162.304 157.256 162.304C148.037 162.304 140.562 169.763 140.562 178.963C140.562 188.163 148.037 195.622 157.256 195.622Z" fill="#80B528"/>
<path opacity="0.24" d="M204.432 87.1958C213.652 87.1958 221.126 79.7375 221.126 70.5371C221.126 61.3368 213.652 53.8784 204.432 53.8784C195.212 53.8784 187.738 61.3368 187.738 70.5371C187.738 79.7375 195.212 87.1958 204.432 87.1958Z" fill="#80B528"/>
<path opacity="0.24" d="M249.472 195.261C258.692 195.261 266.166 187.803 266.166 178.602C266.166 169.402 258.692 161.944 249.472 161.944C240.252 161.944 232.778 169.402 232.778 178.602C232.778 187.803 240.252 195.261 249.472 195.261Z" fill="#80B528"/>
<path d="M82.8376 65.7494H43.877V67.8875H82.8376V65.7494Z" fill="#80B528"/>
<path d="M62.8907 69.7633H43.877V71.9014H62.8907V69.7633Z" fill="#80B528"/>
<path d="M82.8174 69.7633H63.8037V71.9014H82.8174V69.7633Z" fill="#80B528"/>
<path d="M53.6631 74.8462H43.877V76.9843H53.6631V74.8462Z" fill="#80B528"/>
<path d="M68.2665 74.8462H56.3574V76.9843H68.2665V74.8462Z" fill="#80B528"/>
<path d="M177.846 65.7494H138.886V67.8875H177.846V65.7494Z" fill="#80B528"/>
<path d="M157.899 69.7633H138.886V71.9014H157.899V69.7633Z" fill="#80B528"/>
<path d="M177.827 69.7633H158.813V71.9014H177.827V69.7633Z" fill="#80B528"/>
<path d="M177.846 79.1289H138.886V81.267H177.846V79.1289Z" fill="#80B528"/>
<path d="M157.899 83.1361H138.886V85.2742H157.899V83.1361Z" fill="#80B528"/>
<path d="M177.827 87.5107H158.813V89.6488H177.827V87.5107Z" fill="#80B528"/>
<path d="M148.672 74.8462H138.886V76.9843H148.672V74.8462Z" fill="#80B528"/>
<path d="M163.282 74.8462H151.373V76.9843H163.282V74.8462Z" fill="#80B528"/>
<path d="M177.663 74.8462H165.754V76.9843H177.663V74.8462Z" fill="#80B528"/>
<path d="M270.306 65.7494H231.346V67.8875H270.306V65.7494Z" fill="#80B528"/>
<path d="M250.359 69.7633H231.346V71.9014H250.359V69.7633Z" fill="#80B528"/>
<path d="M270.28 69.7633H251.267V71.9014H270.28V69.7633Z" fill="#80B528"/>
<path d="M270.306 79.1289H231.346V81.267H270.306V79.1289Z" fill="#80B528"/>
<path d="M250.359 83.1361H231.346V85.2742H250.359V83.1361Z" fill="#80B528"/>
<path d="M241.132 74.8462H231.346V76.9843H241.132V74.8462Z" fill="#80B528"/>
<path d="M255.735 74.8462H243.826V76.9843H255.735V74.8462Z" fill="#80B528"/>
<path d="M270.122 74.8462H258.213V76.9843H270.122V74.8462Z" fill="#80B528"/>
<path d="M129.955 139.402H90.9941V141.54H129.955V139.402Z" fill="#80B528"/>
<path d="M110.008 143.416H90.9941V145.554H110.008V143.416Z" fill="#80B528"/>
<path d="M129.935 143.416H110.921V145.554H129.935V143.416Z" fill="#80B528"/>
<path d="M129.955 152.775H90.9941V154.913H129.955V152.775Z" fill="#80B528"/>
<path d="M110.008 156.789H90.9941V158.927H110.008V156.789Z" fill="#80B528"/>
<path d="M129.935 161.157H110.921V163.295H129.935V161.157Z" fill="#80B528"/>
<path d="M100.78 148.499H90.9941V150.637H100.78V148.499Z" fill="#80B528"/>
<path d="M115.384 148.499H103.475V150.637H115.384V148.499Z" fill="#80B528"/>
<path d="M129.77 148.499H117.861V150.637H129.77V148.499Z" fill="#80B528"/>
<path d="M222.407 139.402H183.446V141.54H222.407V139.402Z" fill="#80B528"/>
<path d="M202.46 143.416H183.446V145.554H202.46V143.416Z" fill="#80B528"/>
<path d="M222.388 143.416H203.374V145.554H222.388V143.416Z" fill="#80B528"/>
<path d="M222.407 152.775H183.446V154.913H222.407V152.775Z" fill="#80B528"/>
<path d="M202.46 156.789H183.446V158.927H202.46V156.789Z" fill="#80B528"/>
<path d="M193.232 148.499H183.446V150.637H193.232V148.499Z" fill="#80B528"/>
<path d="M207.843 148.499H195.934V150.637H207.843V148.499Z" fill="#80B528"/>
<path d="M222.224 148.499H210.314V150.637H222.224V148.499Z" fill="#80B528"/>
<path d="M55.7468 129.105C55.1421 129.105 54.9844 129.105 54.7412 129.105C54.7559 128.836 54.8023 128.57 54.8792 128.311C55.0666 127.738 55.3995 127.223 55.8454 126.816C56.2191 126.487 56.6191 126.188 57.0415 125.924C57.6199 125.537 57.7579 125.36 57.7579 125.052C57.7579 124.744 57.4687 124.514 57.0415 124.514C56.9061 124.503 56.7704 124.529 56.648 124.587C56.5256 124.646 56.421 124.736 56.3449 124.848C56.2426 125.02 56.1839 125.213 56.174 125.412L54.7675 125.268C54.804 124.83 54.9737 124.414 55.2539 124.075C55.4827 123.837 55.7606 123.653 56.0682 123.534C56.3758 123.415 56.7057 123.364 57.0349 123.386C57.4027 123.349 57.7738 123.408 58.1123 123.556C58.4508 123.704 58.7452 123.937 58.9672 124.232C59.1178 124.464 59.1956 124.736 59.1907 125.012C59.1912 125.254 59.1357 125.492 59.0285 125.708C58.9213 125.924 58.7653 126.113 58.5729 126.259C58.2641 126.517 57.9392 126.756 57.6002 126.973C57.1971 127.195 56.8577 127.515 56.6143 127.905H58.1785C58.5362 127.911 58.894 127.896 59.2498 127.859V129.171C58.8621 129.138 58.5926 129.125 58.0997 129.125L55.7468 129.105Z" fill="white"/>
<path d="M60.5702 128.6C60.3555 128.39 60.1876 128.138 60.0773 127.859C59.8987 127.367 59.8097 126.847 59.8144 126.324C59.8003 125.681 59.9448 125.043 60.235 124.468C60.4386 124.132 60.729 123.856 61.0759 123.671C61.4228 123.485 61.8134 123.396 62.2067 123.412C62.5072 123.403 62.8066 123.453 63.0875 123.56C63.3684 123.667 63.6253 123.829 63.8432 124.035C64.0556 124.246 64.2213 124.498 64.3296 124.776C64.5093 125.27 64.5983 125.792 64.5925 126.318C64.6037 126.963 64.4594 127.602 64.1719 128.18C63.9656 128.513 63.6742 128.785 63.3277 128.969C62.9812 129.152 62.592 129.24 62.2002 129.223C61.9005 129.233 61.6019 129.183 61.3219 129.076C61.0419 128.969 60.7863 128.807 60.5702 128.6ZM61.1946 126.272C61.1946 127.472 61.5364 128.082 62.2002 128.082C62.864 128.082 63.1992 127.485 63.1992 126.291C63.1992 125.098 62.8508 124.54 62.1936 124.54C61.5364 124.54 61.1946 125.176 61.1946 126.272Z" fill="white"/>
<path d="M65.749 123.484C66.0144 123.524 66.2827 123.539 66.5508 123.53H67.4052C67.6832 123.547 67.962 123.547 68.2399 123.53C68.2062 123.89 68.1908 124.251 68.1939 124.612V128.121C68.1898 128.459 68.2074 128.796 68.2465 129.131H66.7809C66.8201 128.796 66.8376 128.459 66.8335 128.121V124.704H66.564C66.2917 124.704 66.0196 124.719 65.749 124.75V123.484Z" fill="white"/>
<path d="M74.6354 126.659C74.8472 126.916 74.953 127.244 74.9311 127.577C74.9359 127.776 74.8993 127.973 74.8235 128.157C74.7477 128.342 74.6344 128.508 74.4908 128.646C73.9338 129.088 73.2285 129.302 72.5191 129.243C71.8066 129.3 71.0998 129.079 70.5474 128.626C70.4118 128.488 70.3059 128.324 70.2358 128.143C70.1658 127.963 70.1331 127.77 70.1399 127.577C70.1307 127.365 70.1732 127.154 70.2636 126.962C70.3541 126.77 70.4898 126.603 70.6591 126.475C70.8645 126.316 71.1061 126.21 71.3623 126.167C71.0819 126.108 70.8309 125.954 70.6531 125.73C70.4753 125.505 70.3821 125.226 70.3896 124.94C70.3778 124.626 70.4753 124.318 70.6657 124.068C70.9052 123.832 71.1933 123.651 71.51 123.538C71.8267 123.425 72.1643 123.382 72.4994 123.412C73.8138 123.412 74.6288 124.002 74.6288 124.934C74.6441 125.221 74.5577 125.505 74.3847 125.735C74.2117 125.965 73.9631 126.127 73.6824 126.193C73.8649 126.2 74.044 126.245 74.208 126.326C74.3721 126.406 74.5177 126.519 74.6354 126.659ZM71.5792 127.465C71.5792 127.898 71.9539 128.161 72.5585 128.161C73.1632 128.161 73.5378 127.898 73.5378 127.446C73.5378 126.993 73.1763 126.737 72.5782 126.737C71.9801 126.737 71.5792 127.013 71.5792 127.465ZM71.7764 125.032C71.7764 125.399 72.0853 125.635 72.5782 125.635C73.0712 125.635 73.3538 125.406 73.3538 125.032C73.3538 124.658 73.0514 124.442 72.5716 124.442C72.0919 124.442 71.7764 124.671 71.7764 125.032Z" fill="white"/>
<path d="M105.203 129.105C104.598 129.105 104.447 129.105 104.197 129.105C104.212 128.836 104.258 128.57 104.335 128.311C104.523 127.738 104.856 127.223 105.301 126.816C105.675 126.487 106.075 126.188 106.498 125.924C107.076 125.537 107.214 125.36 107.214 125.052C107.214 124.744 106.925 124.514 106.498 124.514C106.362 124.503 106.226 124.529 106.104 124.587C105.982 124.646 105.877 124.736 105.801 124.848C105.699 125.02 105.64 125.213 105.63 125.412L104.224 125.268C104.263 124.831 104.433 124.415 104.71 124.075C104.939 123.837 105.217 123.653 105.524 123.534C105.832 123.415 106.162 123.364 106.491 123.386C106.859 123.349 107.23 123.408 107.568 123.556C107.907 123.704 108.201 123.937 108.423 124.232C108.574 124.464 108.652 124.736 108.647 125.012C108.647 125.254 108.592 125.492 108.485 125.708C108.377 125.924 108.221 126.113 108.029 126.259C107.72 126.517 107.395 126.756 107.056 126.973C106.653 127.195 106.314 127.515 106.07 127.905H107.635C107.994 127.912 108.354 127.896 108.712 127.859V129.171C108.325 129.138 108.055 129.125 107.562 129.125L105.203 129.105Z" fill="white"/>
<path d="M110.027 128.6C109.811 128.392 109.643 128.139 109.534 127.859C109.356 127.367 109.267 126.847 109.271 126.324C109.257 125.681 109.402 125.043 109.692 124.468C109.896 124.132 110.186 123.856 110.533 123.671C110.88 123.485 111.27 123.396 111.664 123.412C111.964 123.403 112.264 123.453 112.545 123.56C112.825 123.667 113.082 123.829 113.3 124.035C113.513 124.246 113.678 124.498 113.787 124.776C113.966 125.27 114.055 125.792 114.05 126.318C114.061 126.963 113.916 127.602 113.629 128.18C113.437 128.463 113.186 128.7 112.893 128.877C112.601 129.054 112.274 129.167 111.934 129.207C111.594 129.246 111.25 129.213 110.924 129.108C110.599 129.003 110.3 128.83 110.047 128.6H110.027ZM110.645 126.272C110.645 127.472 110.987 128.082 111.657 128.082C112.328 128.082 112.65 127.485 112.65 126.291C112.65 125.098 112.301 124.54 111.644 124.54C110.987 124.54 110.684 125.176 110.684 126.272H110.645Z" fill="white"/>
<path d="M115.206 123.484C115.471 123.524 115.74 123.539 116.008 123.53H116.862C117.14 123.547 117.419 123.547 117.697 123.53C117.663 123.89 117.648 124.251 117.651 124.612V128.121C117.647 128.459 117.664 128.796 117.704 129.131H116.238C116.277 128.796 116.295 128.459 116.29 128.121V124.704H116.021C115.749 124.704 115.477 124.719 115.206 124.75V123.484Z" fill="white"/>
<path d="M121.16 127.616C121.19 127.723 121.244 127.822 121.318 127.905C121.404 127.991 121.506 128.058 121.62 128.101C121.733 128.144 121.854 128.162 121.975 128.154C122.148 128.159 122.319 128.118 122.471 128.035C122.622 127.952 122.748 127.83 122.836 127.682C122.984 127.4 123.063 127.088 123.066 126.77C122.892 126.936 122.686 127.065 122.459 127.148C122.233 127.232 121.993 127.268 121.752 127.255C121.497 127.279 121.239 127.248 120.997 127.164C120.755 127.081 120.533 126.947 120.346 126.771C120.16 126.596 120.013 126.383 119.915 126.146C119.818 125.91 119.772 125.655 119.78 125.399C119.78 124.212 120.694 123.432 122.021 123.432C122.402 123.412 122.782 123.493 123.121 123.667C123.461 123.841 123.748 124.102 123.954 124.422C124.26 124.975 124.408 125.601 124.381 126.232C124.392 126.878 124.262 127.518 124 128.108C123.767 128.584 123.356 128.949 122.856 129.125C122.564 129.214 122.261 129.261 121.956 129.262C121.392 129.289 120.839 129.104 120.405 128.744C120.171 128.523 119.995 128.249 119.892 127.944L121.16 127.616ZM122.902 125.334C122.882 125.098 122.774 124.878 122.6 124.717C122.425 124.557 122.196 124.468 121.959 124.468C121.722 124.468 121.493 124.557 121.318 124.717C121.144 124.878 121.036 125.098 121.016 125.334C121.013 125.452 121.034 125.569 121.08 125.678C121.125 125.787 121.194 125.885 121.28 125.966C121.366 126.046 121.469 126.108 121.581 126.146C121.693 126.184 121.812 126.198 121.929 126.186C122.051 126.2 122.173 126.188 122.29 126.152C122.406 126.116 122.513 126.055 122.605 125.975C122.697 125.895 122.77 125.796 122.822 125.686C122.873 125.575 122.9 125.455 122.902 125.334Z" fill="white"/>
<path d="M146.083 129.105C145.478 129.105 145.32 129.105 145.077 129.105C145.092 128.836 145.138 128.57 145.215 128.311C145.403 127.738 145.735 127.223 146.181 126.816C146.555 126.487 146.955 126.188 147.377 125.924C147.956 125.537 148.094 125.36 148.094 125.052C148.094 124.744 147.805 124.514 147.377 124.514C147.242 124.503 147.106 124.529 146.984 124.587C146.862 124.646 146.757 124.736 146.681 124.848C146.578 125.02 146.52 125.213 146.51 125.412L145.103 125.268C145.14 124.83 145.31 124.414 145.59 124.075C145.818 123.837 146.096 123.652 146.404 123.533C146.711 123.414 147.042 123.364 147.371 123.386C147.739 123.349 148.11 123.408 148.448 123.556C148.787 123.704 149.081 123.937 149.303 124.232C149.454 124.464 149.532 124.736 149.527 125.012C149.527 125.254 149.472 125.492 149.364 125.708C149.257 125.924 149.101 126.113 148.909 126.259C148.6 126.517 148.275 126.756 147.936 126.973C147.533 127.197 147.192 127.517 146.944 127.905H148.508C148.868 127.912 149.228 127.896 149.586 127.859V129.171C149.198 129.138 148.929 129.125 148.436 129.125L146.083 129.105Z" fill="white"/>
<path d="M150.906 128.6C150.692 128.391 150.526 128.138 150.42 127.859C150.241 127.367 150.152 126.847 150.157 126.324C150.143 125.681 150.288 125.043 150.578 124.468C150.781 124.132 151.072 123.856 151.419 123.671C151.766 123.485 152.156 123.396 152.55 123.412C152.849 123.403 153.147 123.453 153.427 123.56C153.707 123.667 153.963 123.829 154.179 124.035C154.396 124.244 154.564 124.497 154.672 124.776C154.849 125.271 154.938 125.793 154.935 126.318C154.946 126.963 154.802 127.602 154.515 128.18C154.308 128.513 154.017 128.785 153.67 128.969C153.324 129.152 152.935 129.24 152.543 129.223C152.242 129.234 151.942 129.185 151.661 129.078C151.38 128.971 151.123 128.808 150.906 128.6ZM151.531 126.272C151.531 127.472 151.873 128.082 152.536 128.082C153.2 128.082 153.535 127.485 153.535 126.291C153.535 125.098 153.18 124.54 152.53 124.54C151.879 124.54 151.531 125.176 151.531 126.272Z" fill="white"/>
<path d="M156.448 129.105C155.843 129.105 155.686 129.105 155.442 129.105C155.457 128.836 155.503 128.57 155.58 128.311C155.768 127.738 156.101 127.223 156.547 126.816C156.92 126.487 157.32 126.188 157.743 125.924C158.321 125.537 158.459 125.36 158.459 125.052C158.459 124.744 158.17 124.514 157.743 124.514C157.607 124.503 157.472 124.529 157.349 124.587C157.227 124.646 157.122 124.736 157.046 124.848C156.944 125.02 156.885 125.213 156.875 125.412L155.469 125.268C155.505 124.83 155.675 124.414 155.955 124.075C156.184 123.837 156.462 123.653 156.769 123.534C157.077 123.415 157.407 123.364 157.736 123.386C158.104 123.349 158.475 123.408 158.813 123.556C159.152 123.704 159.446 123.937 159.668 124.232C159.819 124.464 159.897 124.736 159.892 125.012C159.892 125.254 159.837 125.492 159.73 125.708C159.622 125.924 159.466 126.113 159.274 126.259C158.965 126.517 158.64 126.756 158.301 126.973C157.898 127.197 157.557 127.517 157.309 127.905H158.873C159.242 127.913 159.611 127.897 159.977 127.859V129.171C159.589 129.138 159.32 129.125 158.827 129.125L156.448 129.105Z" fill="white"/>
<path d="M161.291 128.6C161.077 128.391 160.911 128.138 160.805 127.859C160.626 127.367 160.537 126.847 160.542 126.324C160.528 125.681 160.672 125.043 160.963 124.468C161.166 124.132 161.457 123.856 161.803 123.671C162.15 123.485 162.541 123.396 162.934 123.412C163.235 123.404 163.534 123.454 163.815 123.561C164.095 123.668 164.352 123.829 164.571 124.035C164.783 124.246 164.949 124.498 165.057 124.776C165.237 125.27 165.326 125.792 165.32 126.318C165.331 126.963 165.187 127.602 164.899 128.18C164.693 128.513 164.402 128.785 164.055 128.969C163.709 129.152 163.32 129.24 162.928 129.223C162.627 129.234 162.327 129.185 162.046 129.078C161.765 128.971 161.508 128.808 161.291 128.6ZM161.916 126.272C161.916 127.472 162.257 128.082 162.928 128.082C163.598 128.082 163.92 127.485 163.92 126.291C163.92 125.098 163.565 124.54 162.915 124.54C162.264 124.54 161.896 125.176 161.896 126.272H161.916Z" fill="white"/>
<path d="M195.54 129.105C194.935 129.105 194.777 129.105 194.534 129.105C194.549 128.836 194.595 128.57 194.672 128.311C194.86 127.738 195.192 127.223 195.638 126.816C196.012 126.487 196.412 126.188 196.834 125.924C197.413 125.537 197.551 125.36 197.551 125.052C197.551 124.744 197.262 124.514 196.834 124.514C196.699 124.503 196.563 124.529 196.441 124.587C196.319 124.646 196.214 124.736 196.138 124.848C196.036 125.02 195.977 125.213 195.967 125.412L194.56 125.268C194.597 124.83 194.767 124.414 195.047 124.075C195.276 123.837 195.554 123.653 195.861 123.534C196.169 123.415 196.499 123.364 196.828 123.386C197.196 123.349 197.567 123.408 197.905 123.556C198.244 123.704 198.538 123.937 198.76 124.232C198.911 124.464 198.989 124.736 198.984 125.012C198.984 125.254 198.929 125.492 198.821 125.708C198.714 125.924 198.558 126.113 198.366 126.259C198.057 126.517 197.732 126.756 197.393 126.973C196.99 127.195 196.651 127.515 196.407 127.905H197.972C198.329 127.911 198.687 127.896 199.043 127.859V129.171C198.655 129.138 198.386 129.125 197.893 129.125L195.54 129.105Z" fill="white"/>
<path d="M200.364 128.6C200.152 128.39 199.986 128.137 199.878 127.859C199.699 127.367 199.61 126.847 199.615 126.324C199.603 125.681 199.748 125.044 200.036 124.468C200.239 124.132 200.53 123.856 200.876 123.671C201.223 123.485 201.614 123.396 202.007 123.412C202.308 123.403 202.607 123.453 202.888 123.56C203.169 123.667 203.426 123.829 203.644 124.035C203.856 124.246 204.022 124.498 204.13 124.776C204.31 125.27 204.399 125.792 204.393 126.318C204.408 126.964 204.264 127.603 203.972 128.18C203.766 128.513 203.475 128.785 203.128 128.969C202.782 129.152 202.392 129.24 202.001 129.223C201.7 129.234 201.4 129.185 201.119 129.078C200.838 128.971 200.581 128.808 200.364 128.6ZM200.988 126.272C200.988 127.472 201.33 128.082 201.994 128.082C202.658 128.082 202.993 127.485 202.993 126.291C202.993 125.098 202.645 124.54 201.988 124.54C201.33 124.54 200.988 125.176 200.988 126.272Z" fill="white"/>
<path d="M205.904 129.105C205.299 129.105 205.142 129.105 204.898 129.105C204.913 128.836 204.959 128.57 205.036 128.311C205.224 127.738 205.557 127.223 206.003 126.816C206.376 126.487 206.776 126.188 207.199 125.924C207.777 125.537 207.915 125.36 207.915 125.052C207.915 124.744 207.626 124.514 207.199 124.514C207.063 124.503 206.928 124.529 206.805 124.587C206.683 124.646 206.578 124.736 206.502 124.848C206.4 125.02 206.341 125.213 206.331 125.412L204.925 125.268C204.961 124.83 205.131 124.414 205.411 124.075C205.64 123.837 205.918 123.653 206.225 123.534C206.533 123.415 206.863 123.364 207.192 123.386C207.56 123.349 207.931 123.408 208.27 123.556C208.608 123.704 208.902 123.937 209.124 124.232C209.275 124.464 209.353 124.736 209.348 125.012C209.348 125.254 209.293 125.492 209.186 125.708C209.078 125.924 208.923 126.113 208.73 126.259C208.421 126.517 208.096 126.756 207.757 126.973C207.354 127.195 207.015 127.515 206.772 127.905H208.336C208.693 127.911 209.051 127.896 209.407 127.859V129.171C209.019 129.138 208.75 129.125 208.257 129.125L205.904 129.105Z" fill="white"/>
<path d="M210.722 123.484C210.989 123.524 211.26 123.539 211.53 123.53H212.384C212.66 123.547 212.937 123.547 213.213 123.53C213.179 123.89 213.163 124.251 213.167 124.612V128.121C213.163 128.459 213.18 128.796 213.219 129.131H211.76C211.799 128.796 211.817 128.459 211.813 128.121V124.704H211.543C211.269 124.704 210.994 124.719 210.722 124.75V123.484Z" fill="white"/>
<path d="M239.679 129.105C239.075 129.105 238.924 129.105 238.674 129.105C238.689 128.836 238.735 128.57 238.812 128.311C238.999 127.738 239.332 127.223 239.778 126.816C240.152 126.487 240.552 126.188 240.974 125.924C241.553 125.537 241.691 125.36 241.691 125.052C241.691 124.744 241.408 124.514 240.974 124.514C240.839 124.503 240.703 124.529 240.581 124.587C240.458 124.646 240.354 124.736 240.277 124.848C240.175 125.02 240.117 125.213 240.107 125.412L238.7 125.268C238.739 124.83 238.911 124.413 239.193 124.075C239.42 123.837 239.697 123.652 240.003 123.533C240.31 123.414 240.639 123.364 240.968 123.386C241.335 123.349 241.706 123.408 242.045 123.556C242.383 123.704 242.678 123.937 242.9 124.232C243.05 124.464 243.128 124.736 243.123 125.012C243.124 125.254 243.068 125.492 242.961 125.708C242.854 125.924 242.698 126.113 242.505 126.259C242.197 126.517 241.872 126.756 241.533 126.973C241.13 127.195 240.79 127.515 240.547 127.905H242.131C242.489 127.911 242.846 127.896 243.202 127.859V129.171C242.814 129.138 242.545 129.125 242.052 129.125L239.679 129.105Z" fill="white"/>
<path d="M244.504 128.6C244.291 128.39 244.126 128.137 244.017 127.859C243.839 127.367 243.75 126.847 243.755 126.324C243.743 125.681 243.887 125.044 244.175 124.468C244.379 124.132 244.669 123.856 245.016 123.671C245.363 123.485 245.754 123.396 246.147 123.412C246.447 123.403 246.747 123.453 247.028 123.56C247.309 123.667 247.565 123.829 247.783 124.035C247.998 124.244 248.164 124.497 248.27 124.776C248.449 125.27 248.538 125.792 248.533 126.318C248.548 126.964 248.403 127.603 248.112 128.18C247.906 128.514 247.615 128.786 247.268 128.969C246.922 129.153 246.532 129.24 246.14 129.223C245.84 129.233 245.54 129.184 245.259 129.077C244.978 128.97 244.721 128.808 244.504 128.6ZM245.161 126.272C245.161 127.472 245.503 128.082 246.167 128.082C246.83 128.082 247.159 127.485 247.159 126.291C247.159 125.098 246.811 124.54 246.153 124.54C245.496 124.54 245.135 125.176 245.135 126.272H245.161Z" fill="white"/>
<path d="M250.017 129.105C249.413 129.105 249.261 129.105 249.012 129.105C249.026 128.836 249.073 128.57 249.15 128.311C249.337 127.738 249.67 127.223 250.116 126.816C250.49 126.487 250.89 126.188 251.312 125.924C251.89 125.537 252.028 125.36 252.028 125.052C252.028 124.744 251.746 124.514 251.312 124.514C251.177 124.503 251.041 124.529 250.919 124.587C250.796 124.646 250.692 124.736 250.615 124.848C250.513 125.02 250.454 125.213 250.444 125.412L249.038 125.268C249.077 124.83 249.249 124.413 249.531 124.075C249.758 123.837 250.035 123.652 250.341 123.533C250.648 123.414 250.977 123.364 251.305 123.386C251.673 123.349 252.044 123.408 252.383 123.556C252.721 123.704 253.016 123.937 253.238 124.232C253.388 124.464 253.466 124.736 253.461 125.012C253.462 125.254 253.406 125.492 253.299 125.708C253.192 125.924 253.036 126.113 252.843 126.259C252.535 126.517 252.21 126.756 251.871 126.973C251.468 127.195 251.128 127.515 250.885 127.905H252.449C252.807 127.911 253.165 127.896 253.52 127.859V129.171C253.133 129.138 252.863 129.125 252.37 129.125L250.017 129.105Z" fill="white"/>
<path d="M255.23 129.105C254.625 129.105 254.468 129.105 254.218 129.105C254.234 128.836 254.283 128.569 254.362 128.311C254.55 127.738 254.883 127.223 255.328 126.816C255.702 126.487 256.102 126.188 256.525 125.924C257.096 125.537 257.241 125.36 257.241 125.052C257.241 124.744 256.952 124.514 256.525 124.514C256.389 124.503 256.253 124.529 256.131 124.587C256.009 124.646 255.904 124.736 255.828 124.848C255.723 125.018 255.664 125.213 255.657 125.412L254.244 125.268C254.286 124.83 254.457 124.415 254.737 124.075C254.965 123.836 255.243 123.651 255.551 123.532C255.858 123.413 256.189 123.363 256.518 123.386C256.886 123.349 257.257 123.408 257.595 123.556C257.934 123.704 258.228 123.937 258.45 124.232C258.598 124.465 258.676 124.736 258.674 125.012C258.674 125.254 258.619 125.492 258.512 125.708C258.404 125.924 258.248 126.113 258.056 126.259C257.746 126.518 257.419 126.757 257.077 126.973C256.675 127.197 256.336 127.517 256.091 127.905H257.655C258.015 127.912 258.375 127.896 258.733 127.859V129.171C258.339 129.138 258.076 129.125 257.583 129.125L255.23 129.105Z" fill="white"/>
<path d="M163.73 186.591H149.928V171.558H158.774L163.749 175.494L163.73 186.591ZM150.861 185.64H162.783V175.933L158.426 172.509H150.861V185.64Z" fill="white"/>
<path d="M163.5 176.058H158.242V171.854L158.702 172.234L163.073 175.677L163.5 176.058ZM158.669 175.625H162.31L158.663 172.765L158.669 175.625Z" fill="white"/>
<path d="M255.565 166.869H245.706C245.024 166.869 244.37 167.139 243.887 167.62C243.404 168.1 243.132 168.753 243.13 169.433V187.142C243.13 187.479 243.197 187.813 243.326 188.124C243.456 188.436 243.646 188.719 243.885 188.957C244.124 189.195 244.408 189.384 244.721 189.513C245.033 189.641 245.368 189.707 245.706 189.706H255.565C255.904 189.709 256.24 189.644 256.554 189.516C256.868 189.389 257.154 189.2 257.395 188.962C257.635 188.723 257.826 188.44 257.957 188.127C258.087 187.815 258.154 187.48 258.154 187.142V169.433C258.153 169.095 258.086 168.761 257.955 168.449C257.824 168.137 257.633 167.853 257.393 167.615C257.152 167.377 256.867 167.188 256.553 167.06C256.239 166.932 255.904 166.867 255.565 166.869ZM250.616 188.434C250.467 188.435 250.319 188.408 250.181 188.352C250.042 188.297 249.917 188.214 249.81 188.11C249.704 188.006 249.619 187.882 249.561 187.745C249.503 187.608 249.473 187.461 249.472 187.312C249.472 187.009 249.593 186.719 249.807 186.505C250.022 186.291 250.312 186.171 250.616 186.171C250.919 186.171 251.21 186.291 251.424 186.505C251.639 186.719 251.759 187.009 251.759 187.312C251.758 187.461 251.728 187.608 251.67 187.745C251.612 187.882 251.528 188.006 251.421 188.11C251.315 188.214 251.189 188.297 251.051 188.352C250.913 188.408 250.765 188.435 250.616 188.434ZM256.708 185.154H244.523V169.624H256.708V185.154Z" fill="white"/>
<path d="M113.517 63.3162C115.518 63.3924 117.415 64.2255 118.823 65.6463C120.232 67.0672 121.045 68.9694 121.1 70.9671C121.154 72.9647 120.445 74.9082 119.116 76.4032C117.787 77.8982 115.938 78.8328 113.944 79.0173C112.87 79.1167 111.786 78.9951 110.761 78.6599C109.735 78.3246 108.79 77.783 107.982 77.0685C107.175 76.3539 106.523 75.4816 106.068 74.5057C105.612 73.5297 105.361 72.4707 105.332 71.3943C105.303 70.3179 105.495 69.2469 105.897 68.2477C106.299 67.2484 106.903 66.3422 107.67 65.585C108.437 64.8278 109.352 64.2357 110.358 63.8455C111.363 63.4552 112.439 63.2751 113.517 63.3162ZM118.998 71.1405C118.983 69.6938 118.393 68.3124 117.358 67.2993C116.323 66.2861 114.927 65.724 113.477 65.7363C112.068 65.7908 110.734 66.3895 109.758 67.4061C108.782 68.4227 108.24 69.7778 108.246 71.1856C108.252 72.5934 108.806 73.9439 109.79 74.9523C110.775 75.9606 112.113 76.5481 113.523 76.5907C114.973 76.5889 116.362 76.0146 117.388 74.9932C118.414 73.9719 118.993 72.5866 118.998 71.1405Z" fill="white"/>
<path d="M117.361 63.3818C117.601 62.993 117.948 62.6814 118.361 62.4848C118.773 62.2881 119.234 62.2147 119.688 62.2734C120.219 62.3238 120.719 62.5478 121.11 62.9106C121.501 63.2735 121.761 63.755 121.85 64.2804C122.008 65.1658 121.581 66.2938 120.943 66.6021C120.068 65.2211 118.829 64.107 117.361 63.3818Z" fill="white"/>
<path d="M106.084 66.5693C105.712 66.2758 105.436 65.878 105.292 65.4269C105.148 64.9758 105.142 64.492 105.276 64.0377C105.402 63.6018 105.646 63.2095 105.983 62.9048C106.32 62.6001 106.735 62.3951 107.182 62.3128C107.653 62.2276 108.139 62.2801 108.581 62.464C109.023 62.6478 109.402 62.9551 109.673 63.349C108.205 64.076 106.964 65.1896 106.084 66.5693Z" fill="white"/>
<path d="M116.56 67.6842C116.98 68.0908 116.98 68.0908 116.593 68.4712C115.896 69.1664 115.197 69.8595 114.496 70.5503C114.435 70.6008 114.39 70.6681 114.366 70.7439C114.343 70.8196 114.342 70.9005 114.365 70.9766C114.424 71.1844 114.4 71.4073 114.296 71.5973C114.193 71.7873 114.019 71.9294 113.812 71.9932C113.608 72.0639 113.386 72.0568 113.187 71.9732C112.988 71.8897 112.827 71.7356 112.735 71.5406C112.701 71.4495 112.648 71.367 112.578 71.2989C112.509 71.2309 112.426 71.179 112.334 71.1471C111.617 70.8323 110.914 70.4913 110.204 70.1961C110.014 70.1109 109.961 70.0256 110.047 69.8289C110.395 69.0549 110.29 69.173 110.96 69.455C111.63 69.737 112.189 70.0191 112.807 70.2814C112.959 70.3235 113.116 70.3391 113.274 70.3273C113.352 70.3273 113.444 70.2814 113.523 70.3273C113.826 70.406 114.01 70.2486 114.18 70.0518C114.884 69.337 115.594 68.6352 116.303 67.9269L116.56 67.6842Z" fill="white"/>
<path d="M198.602 77.568C197.439 78.4206 196.394 79.9422 196.63 81.3654C202.309 81.0834 207.698 81.4113 212.634 81.3654C212.55 79.9467 212.016 78.5915 211.109 77.4958C210.641 77.0608 210.101 76.7102 209.512 76.4596C208.333 75.8239 207.079 75.337 205.779 75.0101C203.111 74.4264 200.672 76.0464 198.602 77.568Z" fill="white"/>
<path d="M208.573 68.9107C208.598 69.1182 208.576 69.3286 208.51 69.527C208.445 69.7254 208.336 69.9068 208.192 70.0585C208.127 70.1372 208.043 70.1982 207.948 70.2355C207.456 70.3929 207.429 69.3895 207.567 69.1009C207.705 68.8123 208.5 68.2614 208.573 68.9107Z" fill="white"/>
<path d="M199.713 68.3466C199.689 68.551 199.708 68.7582 199.769 68.9548C199.83 69.1514 199.932 69.333 200.068 69.4878C200.135 69.5672 200.221 69.6282 200.318 69.6648C200.811 69.8288 200.837 68.8188 200.693 68.5302C200.548 68.2416 199.786 67.6973 199.713 68.3466Z" fill="white"/>
<path d="M205.984 71.7242C205.984 71.7242 205.984 75.0035 206.766 75.7053C207.548 76.407 203.756 79.6404 202.165 76.0266C202.792 74.7245 203.003 73.2615 202.77 71.8357C202.474 69.2123 205.984 71.7242 205.984 71.7242Z" fill="white"/>
<path d="M206.115 72.5047V73.2261C206.115 73.2261 204.209 75.9676 203.427 75.0428C202.644 74.1181 202.874 73.9147 202.874 73.9147L202.789 71.8357L206.115 72.5047Z" fill="white"/>
<path d="M207.823 67.0152C207.823 67.0152 208.375 72.039 205.681 73.0359C202.986 74.0328 201.389 72.6031 200.653 70.1764C199.917 67.7497 201.041 62.8571 203.906 63.3358C206.772 63.8146 207.823 67.0152 207.823 67.0152Z" fill="white"/>
<path d="M208.257 68.7074C208.38 68.5342 208.459 68.3339 208.487 68.1236C208.662 67.1805 208.587 66.208 208.267 65.3033C207.948 64.3986 207.396 63.5935 206.666 62.9686C206.373 62.7072 206.031 62.5046 205.661 62.3718C205.287 62.2668 204.898 62.2268 204.511 62.2537C203.296 62.2958 202.126 62.7179 201.165 63.4605C200.69 63.8343 200.298 64.3024 200.014 64.8353C199.73 65.3683 199.561 65.9542 199.516 66.5561C199.484 66.9141 199.54 67.2744 199.68 67.6055C199.753 67.7696 199.864 67.9143 200.003 68.0281C200.142 68.142 200.306 68.2218 200.482 68.2614C201.106 68.3663 201.277 67.7957 201.796 67.4153C202.552 66.8382 202.795 65.9856 204.517 66.1036C207.297 66.3594 207.501 69.6256 208.257 68.7074Z" fill="white"/>
<path d="M200.213 68.7073C200.178 68.6775 200.15 68.6391 200.134 68.5958C200.13 68.5478 200.13 68.4996 200.134 68.4515C200.128 68.4033 200.105 68.3589 200.068 68.3269C200.048 68.316 200.026 68.3103 200.003 68.3103C199.98 68.3103 199.957 68.316 199.937 68.3269C199.916 68.3339 199.897 68.346 199.883 68.362C199.868 68.378 199.857 68.3975 199.852 68.4187C199.848 68.4602 199.848 68.5019 199.852 68.5434C199.835 68.7107 199.86 68.8796 199.924 69.0352C199.988 69.1388 200.068 69.2318 200.16 69.3107C200.192 69.3492 200.236 69.3748 200.285 69.3828C200.316 69.3892 200.347 69.3892 200.377 69.3828C200.38 69.3699 200.38 69.3564 200.377 69.3435C200.397 69.2307 200.397 69.1153 200.377 69.0025C200.36 68.8874 200.302 68.7825 200.213 68.7073Z" fill="white"/>
</g>
<defs>
<linearGradient id="paint0_linear" x1="59.8935" y1="41.0368" x2="76.269" y2="265.029" gradientUnits="userSpaceOnUse">
<stop stop-color="#010101" stop-opacity="0"/>
<stop offset="0.95" stop-color="#010101"/>
</linearGradient>
<linearGradient id="paint1_linear" x1="13675.7" y1="4559.75" x2="11242.9" y2="34408.8" gradientUnits="userSpaceOnUse">
<stop stop-color="#010101" stop-opacity="0"/>
<stop offset="0.95" stop-color="#010101"/>
</linearGradient>
<linearGradient id="paint2_linear" x1="249.577" y1="87.5172" x2="259.722" y2="344.857" gradientUnits="userSpaceOnUse">
<stop stop-color="white" stop-opacity="0"/>
<stop offset="0.13" stop-color="white" stop-opacity="0.23"/>
<stop offset="0.23" stop-color="white" stop-opacity="0.41"/>
<stop offset="0.35" stop-color="white" stop-opacity="0.59"/>
<stop offset="0.48" stop-color="white" stop-opacity="0.74"/>
<stop offset="0.6" stop-color="white" stop-opacity="0.85"/>
<stop offset="0.72" stop-color="white" stop-opacity="0.93"/>
<stop offset="0.84" stop-color="white" stop-opacity="0.98"/>
<stop offset="0.95" stop-color="white"/>
</linearGradient>
<linearGradient id="paint3_linear" x1="10221.3" y1="-1114.54" x2="9533.48" y2="28450.2" gradientUnits="userSpaceOnUse">
<stop stop-color="#010101" stop-opacity="0"/>
<stop offset="0.95" stop-color="#010101"/>
</linearGradient>
<clipPath id="clip0">
<rect width="300" height="239" fill="white"/>
</clipPath>
</defs>
</svg>
