<svg width="59" height="18" viewBox="0 0 59 18" fill="none" xmlns="http://www.w3.org/2000/svg">
<path d="M43.7617 17.3698L48.6313 11.8569L43.7617 6.34326H48.8997L51.3115 9.02143L53.634 6.34326H58.5927L53.7462 11.8341L58.6593 17.3698H53.5002L51.1102 14.6696L48.7428 17.3698H43.7617Z" fill="#FF6600"/>
<path d="M43.7623 3.87145H38.247V6.34319H43.7623V10.0683H38.247V13.4875H43.7623V17.3697H34.1934V0H43.7623V3.87145Z" fill="#FF6600"/>
<path d="M30.1568 0V7.10853H30.1123C29.2187 6.07358 28.1021 5.71394 26.8066 5.71394C24.1528 5.71394 22.1538 7.53161 21.4521 9.9348C20.6518 7.28682 18.5881 5.66431 15.5278 5.66431C13.0426 5.66431 11.0801 6.78827 10.056 8.61976V6.34345H4.91903V3.87196H10.5249V0H0.339844V17.37H4.91903V10.0683H9.48325C9.34717 10.6047 9.27456 11.179 9.27456 11.785C9.27456 15.4083 12.0218 17.9506 15.5278 17.9506C18.4761 17.9506 20.419 16.556 21.4467 14.0134H17.5225C16.9917 14.7772 16.589 15.0041 15.5278 15.0041C14.2973 15.0041 13.2363 13.9224 13.2363 12.6401H21.2269C21.5734 15.518 23.7984 18 26.8518 18C28.1689 18 29.3748 17.3472 30.1123 16.245H30.1568V17.3695H34.1934V0H30.1568ZM13.3638 10.1203C13.6184 9.01701 14.4676 8.29593 15.5278 8.29593C16.6949 8.29593 17.501 8.99476 17.7129 10.1203H13.3638ZM27.7071 14.7251C26.2191 14.7251 25.2945 13.3282 25.2945 11.8696C25.2945 10.3106 26.0988 8.81135 27.7071 8.81135C29.3748 8.81135 30.0392 10.3106 30.0392 11.8696C30.039 13.3481 29.335 14.7251 27.7071 14.7251Z" fill="#652C8F"/>
</svg>