<svg width="128" height="30" viewBox="0 0 128 30" fill="none" xmlns="http://www.w3.org/2000/svg">
<path d="M125.479 5.24038H125.027V4.98465L126.195 4.98678V5.24251H125.743L125.741 6.62773H125.479V5.24038ZM126.406 4.98678H126.817L127.199 6.15249H127.205L127.587 4.98678H128L127.998 6.6256H127.738L127.74 5.30857H127.736L127.286 6.6256H127.103L126.662 5.30644H126.657L126.655 6.62346H126.406V4.98678ZM117.43 4.92498C116.726 4.92498 116.198 5.38742 116.106 6.05233C115.218 5.13809 113.922 4.63515 112.434 4.63515C108.773 4.63088 105.9 7.50787 105.896 11.1862C105.896 11.2757 105.898 11.363 105.903 11.4504C107.279 11.9917 108.255 13.3343 108.253 14.9007C108.253 15.3226 108.179 15.7275 108.046 16.1047C109.187 17.1085 110.704 17.7052 112.417 17.7073C113.89 17.7095 115.284 16.9891 116.083 16.2305C116.143 16.955 116.673 17.4495 117.413 17.4516C118.25 17.4516 118.772 16.9316 118.772 16.092L118.783 6.26757C118.787 5.45136 118.254 4.92498 117.43 4.92498ZM112.402 14.8282C110.397 14.8261 108.765 13.1915 108.769 11.1819C108.771 9.17439 110.406 7.54197 112.411 7.5441C114.416 7.54623 116.049 9.18079 116.047 11.1904C116.044 13.1979 114.41 14.8303 112.402 14.8282ZM93.5251 4.8994C92.8219 4.8994 92.2934 5.36185 92.2017 6.02676C91.313 5.11251 90.0173 4.60957 88.5298 4.60957C84.8686 4.60531 81.998 7.4823 81.9937 11.1606C81.9895 14.8751 84.794 17.6775 88.517 17.6818C89.9918 17.6839 91.3834 16.9636 92.1825 16.2049C92.2422 16.9295 92.7729 17.4239 93.5123 17.426C94.3499 17.426 94.872 16.906 94.872 16.0664L94.8826 6.242C94.8826 5.42579 94.3499 4.8994 93.5251 4.8994ZM88.4062 14.8005C86.4009 14.7984 84.7684 13.1638 84.7706 11.1542C84.7727 9.14669 86.4072 7.51426 88.4126 7.5164C90.4201 7.51853 92.0504 9.15308 92.0483 11.1627C92.0483 13.1702 90.4137 14.8026 88.4062 14.8005ZM47.3825 0C46.5556 0 46.0229 0.524251 46.0229 1.3362L46.0186 5.99053C45.1662 5.0635 43.8854 4.5563 42.383 4.55416C38.9029 4.55203 35.849 7.6123 35.8447 11.1073C35.8405 14.5767 38.8901 17.6242 42.368 17.6285C43.911 17.6306 45.3558 16.8357 46.1209 16.0515C46.2701 16.9039 46.7837 17.3706 47.5828 17.3706C48.2435 17.3706 48.723 16.8634 48.7251 16.1644L48.7422 1.34046C48.7422 0.539169 48.1966 0.0021311 47.3825 0ZM42.3446 14.7494C40.3392 14.7472 38.7068 13.1127 38.7089 11.103C38.7111 9.09554 40.3456 7.46312 42.351 7.46525C44.3563 7.46738 45.9888 9.10194 45.9866 11.1116C45.9845 13.1191 44.35 14.7515 42.3446 14.7494ZM67.1506 4.86957C66.2811 4.86957 65.8336 5.27448 65.7206 6.18019C64.9108 5.36185 63.483 4.57974 61.9571 4.57974C58.4792 4.57548 55.4232 7.62721 55.421 11.1073C55.4168 14.5895 58.4642 17.6455 61.9443 17.6498C63.5171 17.6519 64.7595 17.1724 65.5565 16.2603C65.4798 18.8944 64.2076 20.173 61.6779 20.1709C60.8532 20.1709 60.3183 20.7037 60.3162 21.5284C60.3162 22.3936 60.8426 22.888 61.7611 22.8902C66.5816 22.8966 68.295 19.3888 68.2971 16.3839L68.3078 6.05446C68.3121 5.36825 67.824 4.86957 67.1506 4.86957ZM61.8889 14.7707C59.8814 14.7685 58.2511 13.134 58.2533 11.1244C58.2554 9.11685 59.8899 7.48443 61.8953 7.48656C63.9007 7.48869 65.5331 9.12325 65.531 11.1329C65.5288 13.1425 63.8943 14.7728 61.8889 14.7707ZM122.504 4.8376C121.741 4.8376 121.166 5.41087 121.166 6.1738L121.121 16.1388C121.121 16.9401 121.668 17.4985 122.457 17.5006C123.294 17.5006 123.817 16.9806 123.819 16.1431L123.863 6.17806C123.861 5.37677 123.316 4.8376 122.504 4.8376ZM52.2329 4.70334C51.47 4.70334 50.8946 5.27661 50.8946 6.03954L50.8839 16.0152C50.8839 16.8165 51.4316 17.377 52.2201 17.377C53.0576 17.377 53.5798 16.857 53.5798 16.0174L53.5904 6.04167C53.5904 5.24251 53.0448 4.70334 52.2329 4.70334ZM72.0436 4.75875C71.2807 4.75875 70.7053 5.33202 70.7053 6.09495L70.6946 16.0365C70.6946 16.8378 71.2423 17.3983 72.0308 17.3983C72.8684 17.3983 73.3905 16.8783 73.3905 16.0387L73.4011 6.09708C73.4011 5.29792 72.8556 4.75875 72.0436 4.75875ZM80.3848 14.7749C79.5003 14.7003 78.9527 14.451 78.9548 13.4366L78.9612 7.69115H79.6623C80.438 7.69115 81.0006 7.13067 81.0006 6.35495C81.0006 5.52808 80.4785 4.9953 79.6644 4.99317H78.9633L78.9676 1.398C78.9676 0.558349 78.4476 0.0383599 77.6101 0.0362287C76.8237 0.0362287 76.2717 0.594577 76.2717 1.39374L76.2675 5.02301C75.6153 5.12104 75.2147 5.62398 75.2147 6.34855C75.2147 7.03051 75.6324 7.55476 76.2653 7.6741L76.2589 13.4536C76.2568 15.962 77.6037 17.4026 79.9585 17.4068C80.9324 17.409 81.5164 16.9401 81.5164 16.158C81.5164 15.3482 81.1051 14.8453 80.3848 14.7749ZM98.806 0.0575396C98.0196 0.0575396 97.4677 0.607364 97.4677 1.39374L97.4506 16.0642C97.4506 16.8655 97.9983 17.426 98.7868 17.426C99.6243 17.426 100.146 16.906 100.149 16.0664L100.166 1.39587C100.164 0.571135 99.6435 0.0596707 98.806 0.0575396ZM106.663 13.4728C106.619 13.4046 106.57 13.3386 106.516 13.2768C106.393 13.1276 106.252 12.9955 106.099 12.8761C106.045 12.8356 105.99 12.7951 105.932 12.7589C105.649 12.5735 105.327 12.4435 104.98 12.3838C104.841 12.3604 104.698 12.3476 104.554 12.3476C104.115 12.3476 103.701 12.4584 103.341 12.6545C103.269 12.6928 103.198 12.7355 103.13 12.7823C102.452 13.2405 102.007 14.0141 102.005 14.8943C102.005 15.7744 102.448 16.5501 103.126 17.0083C103.194 17.0552 103.264 17.0978 103.335 17.1362C103.695 17.3323 104.108 17.4452 104.547 17.4452C105.163 17.4452 105.728 17.2278 106.167 16.8655C106.293 16.7611 106.408 16.646 106.512 16.5203C106.565 16.4585 106.614 16.3924 106.659 16.3242C106.751 16.1878 106.83 16.0451 106.894 15.8916C107.021 15.5869 107.094 15.2523 107.094 14.9007C107.094 14.549 107.024 14.2144 106.896 13.9076C106.834 13.752 106.755 13.6071 106.663 13.4728Z" fill="#2A2A2A"/>
<path d="M90.8273 10.5895C90.8699 10.7706 90.8934 10.9581 90.8934 11.1521C90.8934 11.2586 90.887 11.3652 90.8742 11.4675C90.8614 11.5719 90.8422 11.6721 90.8167 11.7722C90.7655 11.9704 90.6909 12.1601 90.595 12.3348C90.1752 13.1084 89.3547 13.6348 88.4128 13.6348C87.0425 13.6348 85.9322 12.5224 85.9322 11.1521C85.9322 10.9816 85.9492 10.8132 85.9833 10.6513C86.1474 9.84357 86.7058 9.17654 87.4495 8.86327C87.7457 8.73753 88.0718 8.66721 88.4149 8.66721C88.758 8.66721 89.0841 8.73753 89.3803 8.86327C89.9365 9.09769 90.384 9.53243 90.6462 10.0716C90.7229 10.2357 90.7847 10.4083 90.8273 10.5895ZM42.349 8.66721C40.9787 8.66721 39.8684 9.77964 39.8684 11.1499C39.8684 12.5202 40.9787 13.6327 42.349 13.6327C43.7193 13.6327 44.8317 12.5202 44.8317 11.1499C44.8317 9.77964 43.7193 8.66721 42.349 8.66721ZM113.372 8.86327C113.298 8.8313 113.223 8.8036 113.144 8.78015C113.027 8.74393 112.908 8.71622 112.784 8.69704C112.66 8.67786 112.535 8.66721 112.407 8.66721C112.151 8.66721 111.902 8.70557 111.669 8.77802C111.593 8.80147 111.516 8.8313 111.441 8.86114C110.7 9.17441 110.141 9.84144 109.975 10.6491C109.943 10.8111 109.924 10.9773 109.924 11.1499C109.924 11.8362 110.201 12.4563 110.651 12.906C110.764 13.0189 110.887 13.1212 111.017 13.2086C111.216 13.3428 111.433 13.4494 111.667 13.5219C111.902 13.5943 112.149 13.6327 112.405 13.6327C112.533 13.6327 112.66 13.6241 112.782 13.605C112.906 13.5858 113.025 13.5581 113.142 13.5219C113.374 13.4494 113.594 13.3428 113.792 13.2086C113.924 13.1191 114.048 13.0189 114.159 12.906C114.608 12.4563 114.885 11.8362 114.885 11.1499C114.885 10.9795 114.868 10.8111 114.834 10.6491C114.672 9.84357 114.116 9.17654 113.372 8.86327ZM62.8566 8.86327C62.5604 8.73753 62.2343 8.66721 61.8912 8.66721C61.5481 8.66721 61.222 8.73753 60.9258 8.86327C60.1842 9.17654 59.6259 9.84357 59.4596 10.6513C59.4277 10.8132 59.4085 10.9795 59.4085 11.1521C59.4085 12.5245 60.5188 13.6348 61.8891 13.6348C63.2594 13.6348 64.3718 12.5224 64.3718 11.1521C64.3718 10.9816 64.3548 10.8132 64.3207 10.6513C64.1587 9.84357 63.6004 9.17654 62.8566 8.86327Z" fill="#649A3D"/>
<path d="M100.676 26.47C100.561 26.47 100.488 26.4139 100.458 26.3016L100.385 25.7417C100.188 25.9815 99.9619 26.1741 99.707 26.3198C99.4551 26.4624 99.1653 26.5337 98.8376 26.5337C98.5736 26.5337 98.3339 26.4837 98.1184 26.3835C97.903 26.2803 97.7194 26.1301 97.5677 25.9329C97.4159 25.7357 97.2991 25.4899 97.2172 25.1955C97.1352 24.9012 97.0943 24.5628 97.0943 24.1805C97.0943 23.8406 97.1398 23.525 97.2308 23.2337C97.3219 22.9394 97.4523 22.6845 97.6223 22.469C97.7952 22.2536 98.0046 22.0852 98.2504 21.9638C98.4962 21.8394 98.7754 21.7772 99.0879 21.7772C99.3701 21.7772 99.6114 21.8257 99.8116 21.9228C100.012 22.0169 100.191 22.1504 100.349 22.3234V19.7653H101.159V26.47H100.676ZM99.1061 25.8783C99.3701 25.8783 99.6008 25.8176 99.798 25.6962C99.9983 25.5748 100.182 25.4034 100.349 25.1819V22.9515C100.2 22.7512 100.036 22.6117 99.8572 22.5328C99.6812 22.4508 99.4854 22.4099 99.27 22.4099C98.8391 22.4099 98.5083 22.5631 98.2777 22.8696C98.0471 23.1761 97.9318 23.613 97.9318 24.1805C97.9318 24.4809 97.9576 24.7388 98.0092 24.9543C98.0608 25.1667 98.1366 25.3427 98.2368 25.4823C98.3369 25.6188 98.4598 25.719 98.6054 25.7827C98.7511 25.8464 98.918 25.8783 99.1061 25.8783ZM104.432 21.7863C104.709 21.7863 104.964 21.8333 105.197 21.9274C105.431 22.0184 105.633 22.1519 105.803 22.3279C105.972 22.5009 106.104 22.7164 106.199 22.9743C106.296 23.2292 106.344 23.5205 106.344 23.8482C106.344 23.9757 106.331 24.0606 106.303 24.1031C106.276 24.1456 106.224 24.1668 106.148 24.1668H103.081C103.087 24.4581 103.126 24.7115 103.199 24.927C103.272 25.1424 103.372 25.323 103.499 25.4686C103.627 25.6112 103.779 25.719 103.955 25.7918C104.131 25.8616 104.328 25.8965 104.546 25.8965C104.75 25.8965 104.924 25.8737 105.07 25.8282C105.218 25.7797 105.346 25.7281 105.452 25.6735C105.558 25.6188 105.646 25.5688 105.716 25.5232C105.789 25.4747 105.851 25.4504 105.903 25.4504C105.969 25.4504 106.021 25.4762 106.057 25.5278L106.285 25.8237C106.185 25.945 106.065 26.0512 105.925 26.1423C105.786 26.2303 105.636 26.3031 105.475 26.3608C105.317 26.4184 105.153 26.4609 104.983 26.4882C104.813 26.5186 104.645 26.5337 104.478 26.5337C104.159 26.5337 103.865 26.4806 103.595 26.3744C103.328 26.2652 103.096 26.1074 102.899 25.901C102.704 25.6917 102.553 25.4337 102.443 25.1272C102.334 24.8208 102.28 24.4688 102.28 24.0712C102.28 23.7496 102.328 23.4492 102.425 23.17C102.525 22.8908 102.668 22.6496 102.853 22.4463C103.038 22.2399 103.264 22.0791 103.531 21.9638C103.798 21.8455 104.099 21.7863 104.432 21.7863ZM104.451 22.3826C104.059 22.3826 103.751 22.4964 103.527 22.7239C103.302 22.9485 103.163 23.261 103.108 23.6616H105.616C105.616 23.4735 105.59 23.302 105.539 23.1472C105.487 22.9895 105.411 22.8544 105.311 22.7421C105.211 22.6268 105.088 22.5388 104.942 22.4781C104.8 22.4144 104.636 22.3826 104.451 22.3826ZM107.472 28.0312V21.8591H107.955C108.07 21.8591 108.143 21.9152 108.173 22.0275L108.242 22.5737C108.439 22.334 108.663 22.1413 108.915 21.9957C109.17 21.85 109.463 21.7772 109.794 21.7772C110.058 21.7772 110.297 21.8288 110.513 21.9319C110.728 22.0321 110.912 22.1823 111.064 22.3826C111.215 22.5798 111.332 22.8256 111.414 23.1199C111.496 23.4143 111.537 23.7526 111.537 24.135C111.537 24.4748 111.491 24.7919 111.4 25.0863C111.309 25.3776 111.179 25.631 111.009 25.8464C110.839 26.0588 110.63 26.2272 110.381 26.3517C110.135 26.473 109.857 26.5337 109.548 26.5337C109.263 26.5337 109.018 26.4867 108.815 26.3926C108.615 26.2986 108.437 26.165 108.282 25.9921V28.0312H107.472ZM109.525 22.4326C109.261 22.4326 109.029 22.4933 108.829 22.6147C108.631 22.7361 108.449 22.9075 108.282 23.129V25.3594C108.431 25.5597 108.594 25.7008 108.769 25.7827C108.949 25.8646 109.147 25.9056 109.366 25.9056C109.794 25.9056 110.123 25.7523 110.353 25.4459C110.584 25.1394 110.699 24.7024 110.699 24.135C110.699 23.8346 110.672 23.5766 110.617 23.3612C110.566 23.1457 110.49 22.9697 110.39 22.8332C110.29 22.6936 110.167 22.5919 110.021 22.5282C109.876 22.4645 109.71 22.4326 109.525 22.4326ZM113.487 19.7653V26.47H112.677V19.7653H113.487ZM116.873 21.7863C117.209 21.7863 117.513 21.8424 117.783 21.9547C118.056 22.067 118.287 22.2263 118.475 22.4326C118.666 22.639 118.812 22.8893 118.912 23.1837C119.015 23.475 119.067 23.8012 119.067 24.1623C119.067 24.5264 119.015 24.8541 118.912 25.1455C118.812 25.4368 118.666 25.6856 118.475 25.8919C118.287 26.0983 118.056 26.2576 117.783 26.3699C117.513 26.4791 117.209 26.5337 116.873 26.5337C116.536 26.5337 116.231 26.4791 115.958 26.3699C115.688 26.2576 115.457 26.0983 115.266 25.8919C115.075 25.6856 114.928 25.4368 114.824 25.1455C114.721 24.8541 114.67 24.5264 114.67 24.1623C114.67 23.8012 114.721 23.475 114.824 23.1837C114.928 22.8893 115.075 22.639 115.266 22.4326C115.457 22.2263 115.688 22.067 115.958 21.9547C116.231 21.8424 116.536 21.7863 116.873 21.7863ZM116.873 25.901C117.328 25.901 117.668 25.7493 117.892 25.4459C118.117 25.1394 118.229 24.713 118.229 24.1668C118.229 23.6176 118.117 23.1897 117.892 22.8832C117.668 22.5768 117.328 22.4235 116.873 22.4235C116.642 22.4235 116.442 22.463 116.272 22.5419C116.102 22.6208 115.959 22.7346 115.844 22.8832C115.732 23.0319 115.647 23.2155 115.589 23.434C115.534 23.6495 115.507 23.8937 115.507 24.1668C115.507 24.4399 115.534 24.6842 115.589 24.8997C115.647 25.1151 115.732 25.2972 115.844 25.4459C115.959 25.5915 116.102 25.7038 116.272 25.7827C116.442 25.8616 116.642 25.901 116.873 25.901ZM121.392 27.831C121.365 27.8917 121.33 27.9402 121.288 27.9766C121.248 28.013 121.186 28.0312 121.101 28.0312H120.5L121.342 26.2014L119.44 21.8591H120.14C120.21 21.8591 120.265 21.8773 120.304 21.9137C120.344 21.9471 120.373 21.985 120.391 22.0275L121.624 24.9315C121.652 24.9983 121.674 25.065 121.693 25.1318C121.714 25.1986 121.732 25.2668 121.747 25.3366C121.768 25.2668 121.79 25.1986 121.811 25.1318C121.832 25.065 121.856 24.9968 121.884 24.927L123.081 22.0275C123.099 21.979 123.129 21.9395 123.172 21.9092C123.217 21.8758 123.266 21.8591 123.318 21.8591H123.964L121.392 27.831Z" fill="#2A2A2A"/>
<path fill-rule="evenodd" clip-rule="evenodd" d="M27.7241 15C27.7241 22.0273 22.0273 27.7241 15 27.7241C7.97265 27.7241 2.27586 22.0273 2.27586 15C2.27586 7.97265 7.97265 2.27586 15 2.27586C22.0273 2.27586 27.7241 7.97265 27.7241 15ZM30 15C30 23.2843 23.2843 30 15 30C6.71573 30 0 23.2843 0 15C0 6.71573 6.71573 0 15 0C23.2843 0 30 6.71573 30 15ZM23.306 6.73768C23.5866 10.0293 22.6634 12.9191 20.5538 15.2958C19.9004 16.047 19.1211 16.7235 18.2709 17.3429C18.6475 18.5739 18.486 19.8718 17.7941 21.0507C17.1209 22.2072 15.9855 23.1958 14.6155 23.8279C14.4766 23.9063 14.3222 23.9271 14.1883 23.9271C13.9206 23.9271 13.6726 23.8306 13.4762 23.6387L13.47 23.6326C13.1971 23.3416 13.1208 22.882 13.3219 22.513C13.9593 21.3402 13.8137 20.0534 13.0422 19.2991L13.0225 19.28L9.54975 15.8854C8.77622 15.1293 7.45366 14.9861 6.24985 15.6112C5.88642 15.8006 5.41801 15.7593 5.11314 15.4639C4.7903 15.1703 4.71941 14.7301 4.88992 14.3491L4.89219 14.3441C5.53889 13.0008 6.53275 11.8868 7.73888 11.2273C8.9437 10.5709 10.269 10.4149 11.5082 10.7664C13.7754 7.80554 17.381 5.45444 22.3921 5.84166L22.3961 5.84197C22.8823 5.88949 23.2562 6.25077 23.3057 6.73431L23.306 6.73768ZM11.5837 10.9978C10.3604 10.612 9.03843 10.7471 7.83483 11.4028C6.67069 12.0393 5.70387 13.1193 5.07247 14.4308C4.99746 14.5984 4.98065 14.7774 5.02202 14.943C4.9807 14.7774 4.99753 14.5985 5.07251 14.431C5.70391 13.1195 6.67073 12.0395 7.83487 11.403C9.03847 10.7472 10.3605 10.6122 11.5838 10.9979C13.8134 8.02777 17.3847 5.6555 22.3767 6.04123C22.722 6.07498 22.9917 6.30061 23.0802 6.61484C22.9917 6.30052 22.722 6.07481 22.3767 6.04106C17.3847 5.65532 13.8134 8.0276 11.5837 10.9978ZM13.4977 22.6085C13.8723 21.9192 13.9946 21.1818 13.8819 20.5205C13.9947 21.1818 13.8724 21.9193 13.4977 22.6087C13.4046 22.7793 13.387 22.9767 13.4328 23.1575C13.387 22.9767 13.4045 22.7792 13.4977 22.6085ZM18.0359 17.2662L18.0359 17.2662C18.0391 17.2757 18.0423 17.2851 18.0455 17.2946C18.0423 17.2851 18.0391 17.2757 18.0359 17.2662ZM7.9385 13.4814C7.83868 13.4794 7.73838 13.4809 7.63775 13.4858L7.63756 13.486C8.42681 13.4474 9.19632 13.621 9.86718 13.9874C10.104 13.4474 10.3605 12.9074 10.6762 12.3673L10.676 12.3673C10.6399 12.4292 10.6045 12.491 10.5698 12.5529C10.3361 12.9698 10.1351 13.3868 9.94839 13.8038C9.92102 13.8649 9.89395 13.9261 9.86714 13.9872C9.80848 13.9552 9.74907 13.9246 9.68896 13.8956C9.14928 13.6345 8.55307 13.4933 7.9385 13.4814ZM8.16878 13.2914C8.72926 13.3303 9.27215 13.4727 9.77007 13.7126C9.94587 13.3204 10.1353 12.9261 10.3533 12.5308C9.57599 12.4838 8.82687 12.7822 8.16878 13.2914ZM15.5103 21.1622L15.5103 21.1619C15.5796 21.0942 15.6465 21.0249 15.7109 20.9542C16.384 20.2147 16.7781 19.3179 16.6842 18.3839C16.6833 18.3745 16.6823 18.3651 16.6812 18.3557C16.7961 19.3893 16.3116 20.3789 15.5103 21.1622ZM14.9973 18.9634L14.9973 18.9634C15.0292 19.0222 15.0596 19.0818 15.0885 19.1421C15.1413 19.2519 15.1893 19.3643 15.2324 19.4788C15.1656 19.3015 15.0871 19.1294 14.9973 18.9634ZM15.6971 20.6656C16.2395 20.0126 16.5442 19.2589 16.4921 18.486C16.0972 18.6931 15.691 18.8888 15.2735 19.0654C15.5097 19.5601 15.653 20.1006 15.6971 20.6656ZM13.9317 17.7096C16.2995 16.8031 21.7452 14.0066 21.548 7.54562L21.548 7.54562C21.7453 14.0067 16.2995 16.8033 13.9318 17.7098L11.1497 14.9904L11.1497 14.9903L13.9317 17.7096ZM11.3841 14.9397C12.7792 11.4207 16.0936 7.72276 21.3522 7.74303C21.4319 13.8238 16.3679 16.538 13.9795 17.4766L11.3841 14.9397ZM19.1848 9.8932C19.4581 10.1619 19.617 10.5399 19.617 10.9206C19.617 11.3027 19.457 11.682 19.1819 11.9509C18.907 12.2196 18.5211 12.3743 18.1345 12.3743C17.7478 12.3743 17.3619 12.2196 17.087 11.9509C16.812 11.682 16.652 11.3027 16.652 10.9206C16.652 10.5386 16.812 10.1593 17.087 9.89041C17.3619 9.62172 17.7478 9.467 18.1345 9.467C18.5125 9.467 18.9034 9.59705 19.1848 9.8932ZM16.852 10.9208C16.852 10.9948 16.859 11.0687 16.8726 11.1415C16.859 11.0686 16.852 10.9946 16.852 10.9206C16.852 10.8834 16.8537 10.8462 16.8572 10.8091C16.8538 10.8465 16.852 10.8838 16.852 10.9208ZM18.1345 9.66717C18.1151 9.66717 18.0958 9.66756 18.0764 9.66834C18.0957 9.66745 18.1151 9.667 18.1345 9.667C18.1537 9.667 18.1729 9.66738 18.192 9.66814C18.1729 9.66749 18.1537 9.66717 18.1345 9.66717ZM7.93348 18.0375C8.6438 17.3239 9.88687 17.0153 10.8734 17.9989C11.1245 18.2443 11.3031 18.5251 11.4049 18.8242C11.3031 18.5252 11.1245 18.2444 10.8735 17.9991C9.88691 17.0155 8.64385 17.324 7.93353 18.0376C7.02589 18.9248 6.98643 20.6993 6.98643 21.0464C6.98643 21.0812 6.9888 21.1154 6.99341 21.149C6.98878 21.1154 6.98639 21.0811 6.98639 21.0462C6.98639 20.6991 7.02585 18.9247 7.93348 18.0375ZM11.0139 17.8566C10.4798 17.3244 9.86525 17.1341 9.28332 17.1824C8.70771 17.2302 8.17685 17.5099 7.79269 17.8954C7.29673 18.3808 7.04967 19.0932 6.9237 19.704C6.7965 20.3207 6.78639 20.8662 6.78639 21.0462C6.78639 21.5853 7.23541 22.0177 7.77563 22.0177H7.79537C8.00991 22.0177 8.56236 22.0029 9.17744 21.8762C9.78725 21.7506 10.4888 21.5091 10.9738 21.035C11.5701 20.4521 11.7048 19.8385 11.7048 19.4262C11.7048 18.8473 11.4629 18.2958 11.0139 17.8566ZM9.21775 19.8469C9.39649 19.7856 9.52169 19.7156 9.58922 19.6496C9.62556 19.6141 9.66463 19.5648 9.69611 19.5129C9.72136 19.4713 9.73664 19.4363 9.74416 19.4118C9.73765 19.3826 9.71185 19.3226 9.62868 19.2413C9.52847 19.1433 9.45766 19.1247 9.43305 19.1247C9.37788 19.1247 9.309 19.1521 9.17823 19.2799C9.1224 19.3345 9.0559 19.4491 8.99209 19.6247C8.95814 19.7181 8.92721 19.8223 8.89992 19.9328C9.01337 19.909 9.12078 19.8801 9.21775 19.8469ZM8.85324 20.1458C8.78447 20.1585 8.71442 20.1693 8.64388 20.1783L8.64385 20.1785C9.09766 20.1206 9.53175 19.9856 9.72906 19.7928C9.82772 19.6963 9.92637 19.5421 9.9461 19.4263C9.9461 19.4045 9.94306 19.3816 9.93697 19.358C9.94303 19.3815 9.94606 19.4043 9.94606 19.4262C9.92633 19.5419 9.82767 19.6962 9.72902 19.7926C9.56238 19.9555 9.22688 20.0771 8.85324 20.1458Z" fill="#649A3D"/>
</svg>
