<svg width="26" height="27" viewBox="0 0 26 27" fill="none" xmlns="http://www.w3.org/2000/svg">
<path fill-rule="evenodd" clip-rule="evenodd" d="M17.6581 0.750488C16.4436 0.750488 15.661 1.52053 15.661 2.71315L15.6547 9.54961C14.4026 8.18795 12.5214 7.44295 10.3145 7.43982C5.20285 7.43669 0.717205 11.9317 0.710944 17.0653C0.704684 22.1614 5.18406 26.6376 10.2926 26.6439C12.5589 26.647 14.6812 25.4794 15.805 24.3275C16.0241 25.5796 16.7785 26.2651 17.9523 26.2651C18.9227 26.2651 19.627 25.5201 19.6301 24.4934L19.6552 2.71941C19.6552 1.54244 18.8538 0.753619 17.6581 0.750488ZM10.2581 22.4147C7.31251 22.4116 4.91474 20.0107 4.91787 17.0589C4.921 14.1102 7.3219 11.7124 10.2675 11.7155C13.213 11.7187 15.6108 14.1196 15.6077 17.0714C15.6045 20.0201 13.2036 22.4178 10.2581 22.4147Z" fill="black"/>
<path d="M21.2629 1.29086H21.8915V3.22108H22.2562L22.2592 1.29382H22.8878V0.938023L21.2629 0.935059V1.29086Z" fill="black"/>
<path d="M23.7535 0.938023H23.1813V3.21515H23.5282L23.5312 1.38277H23.5371L24.1509 3.21812H24.4058L25.0315 1.38574H25.0374L25.0344 3.21812H25.3961L25.3991 0.938023H24.8239L24.2932 2.55988H24.2843L23.7535 0.938023Z" fill="black"/>
<path d="M6.71094 17.1125C6.70889 19.3196 8.27902 21.1148 10.2079 21.1172C12.1367 21.1195 13.7089 19.3267 13.7109 17.1219C13.713 14.9147 12.1429 13.1195 10.214 13.1172C8.28517 13.1148 6.71299 14.9077 6.71094 17.1125Z" fill="#649A3D"/>
</svg>
